<svg id="Layer_1" data-name="Layer 1" xmlns="http://www.w3.org/2000/svg" xmlns:xlink="http://www.w3.org/1999/xlink" viewBox="0 0 647.13 172.27"><defs><style>.cls-1,.cls-7{fill:none;}.cls-2,.cls-3,.cls-4,.cls-8{isolation:isolate;}.cls-3,.cls-4{font-size:75.03px;}.cls-3,.cls-4,.cls-8{fill:#fff;font-family:Montserrat-ExtraBold, Montserrat;font-weight:800;}.cls-4{letter-spacing:-0.01em;}.cls-5{clip-path:url(#clip-path);}.cls-6{fill:url(#linear-gradient);}.cls-7{stroke:#fff;stroke-miterlimit:10;stroke-width:0.77px;}.cls-8{font-size:74.93px;}</style><clipPath id="clip-path" transform="translate(-0.87 -1.2)"><path class="cls-1" d="M28.23,1.2h592.4A27.36,27.36,0,0,1,648,28.55V146.11a27.36,27.36,0,0,1-27.37,27.37H28.23A27.38,27.38,0,0,1,.87,146.11V28.57A27.36,27.36,0,0,1,28.22,1.2Z"/></clipPath><linearGradient id="linear-gradient" x1="1978.94" y1="2.22" x2="1981.61" y2="2.22" gradientTransform="translate(-479822.08 -451.34) scale(242.46)" gradientUnits="userSpaceOnUse"><stop offset="0" stop-color="#f05235"/><stop offset="0.2" stop-color="#f05235"/><stop offset="0.86" stop-color="#f8951d"/><stop offset="1" stop-color="#f8951d"/></linearGradient></defs><title>buttonLogin</title><g class="cls-2"><text class="cls-3" transform="translate(40.04 109.9)">REGI</text><text class="cls-4" transform="translate(230.38 109.9)">S</text><text class="cls-3" transform="translate(278.93 109.9)">TRARSE</text></g><g class="cls-5"><rect class="cls-6" width="647.13" height="172.27"/></g><rect class="cls-7" x="117.7" y="59.34" width="17.68" height="52.45"/><polygon class="cls-7" points="178.39 59.34 178.39 83.17 158.46 59.34 143.92 59.34 143.92 111.79 161.16 111.79 161.16 87.96 181.09 111.79 195.62 111.79 195.62 59.34 178.39 59.34"/><path class="cls-7" d="M239.72,98.6a16.56,16.56,0,0,1-6.44,1.28,11.9,11.9,0,0,1-9.1-3.6,13.24,13.24,0,0,1-3.41-9.52q0-6.06,3.44-9.59a12.44,12.44,0,0,1,9.29-3.52q6.83,0,11.77,5.77l11.31-10a25.89,25.89,0,0,0-10.15-7.53,35,35,0,0,0-13.82-2.59,33,33,0,0,0-15.33,3.49,25.82,25.82,0,0,0-10.56,9.74,26.74,26.74,0,0,0-3.78,14.19,26.77,26.77,0,0,0,3.78,14.2,26.07,26.07,0,0,0,10.45,9.74,32,32,0,0,0,15.06,3.49,44.71,44.71,0,0,0,12.06-1.72,35.66,35.66,0,0,0,10.8-5V85.34H239.72Z" transform="translate(-0.87 -1.2)"/><path class="cls-7" d="M294,80.32a5.79,5.79,0,0,1-1.79,4.53,7.84,7.84,0,0,1-5.4,1.62h-6.44V74.18h6.44a7.83,7.83,0,0,1,5.4,1.61A5.79,5.79,0,0,1,294,80.32Zm.08,32.67H313L302,96.8a18,18,0,0,0,7.35-6.66,18.49,18.49,0,0,0,2.55-9.82,18.14,18.14,0,0,0-11.24-17.38A31,31,0,0,0,288,60.54h-25.3V113h17.69V99.8h4.79Z" transform="translate(-0.87 -1.2)"/><polygon class="cls-7" points="334.99 98.45 334.99 91.56 357.17 91.56 357.17 78.82 334.99 78.82 334.99 72.68 360.24 72.68 360.24 59.34 317.6 59.34 317.6 111.79 361.21 111.79 361.21 98.45 334.99 98.45"/><path class="cls-7" d="M388.46,114.19a34,34,0,0,0,13.37-2.36,18.8,18.8,0,0,0,8.28-6.37,15.38,15.38,0,0,0,2.77-8.95q0-5.7-3-9a17.66,17.66,0,0,0-7.16-4.75,67.84,67.84,0,0,0-10.11-2.59,44,44,0,0,1-6.67-1.68c-1.35-.53-2-1.32-2-2.36,0-2.2,2.28-3.3,6.82-3.3a32.6,32.6,0,0,1,14.61,3.89l5.33-12.81a33.59,33.59,0,0,0-9.19-3.41,49,49,0,0,0-10.6-1.16,34.49,34.49,0,0,0-13.37,2.32A18.37,18.37,0,0,0,369.2,68a15.56,15.56,0,0,0-2.77,9q0,5.69,3,9a17.37,17.37,0,0,0,7.05,4.8,76.57,76.57,0,0,0,10.11,2.73,44.28,44.28,0,0,1,6.78,1.8c1.38.55,2.06,1.38,2.06,2.47a2.29,2.29,0,0,1-1.57,2.14,13.91,13.91,0,0,1-5.24.71,33.24,33.24,0,0,1-8.92-1.31,36.07,36.07,0,0,1-8.4-3.48l-5.69,12.88a34,34,0,0,0,10.15,3.94A55.41,55.41,0,0,0,388.46,114.19Z" transform="translate(-0.87 -1.2)"/><path class="cls-7" d="M438.81,91.11l5.09-13.19L449,91.11ZM457.39,113h18.28L452.74,60.54H435.36L412.43,113h18l3.52-9.14h19.93Z" transform="translate(-0.87 -1.2)"/><path class="cls-7" d="M509.84,80.32a5.77,5.77,0,0,1-1.8,4.53,7.84,7.84,0,0,1-5.4,1.62H496.2V74.18h6.44a7.83,7.83,0,0,1,5.4,1.61A5.77,5.77,0,0,1,509.84,80.32Zm.07,32.67h18.88l-11-16.19a18.07,18.07,0,0,0,7.34-6.66,18.49,18.49,0,0,0,2.55-9.82,18.14,18.14,0,0,0-11.24-17.38,30.88,30.88,0,0,0-12.66-2.4H478.52V113H496.2V99.8H501Z" transform="translate(-0.87 -1.2)"/><text class="cls-8" transform="translate(107.13 103.84)">INGRESAR</text></svg>