<svg id="Component_2_1" data-name="Component 2 – 1" xmlns="http://www.w3.org/2000/svg" width="242.401" height="64.528" viewBox="0 0 242.401 64.528">
    <rect id="Rectangle_31" data-name="Rectangle 31" width="242.401" height="64.528" rx="13.294" fill="#008dce"/>
    <path id="Path_1524" data-name="Path 1524" d="M3137,656.552v21.533l17-10.956Z" transform="translate(-3115.681 -634.399)" fill="#fff"/>
    <g id="Component_1_1" data-name="Component 1 – 1" transform="translate(54.878 21.489)">
      <path id="Path_1525" data-name="Path 1525" d="M3170.559,656.3h4.511v23.874h-4.511Z" transform="translate(-3170.559 -655.888)" fill="#fff"/>
      <path id="Path_1526" data-name="Path 1526" d="M3181.316,656.3h3.922l11.937,16.622V656.3h4.268v23.874h-3.956l-11.9-16.622v16.622h-4.269Z" transform="translate(-3170.559 -655.888)" fill="#fff"/>
      <path id="Path_1527" data-name="Path 1527" d="M3226.463,678.652a23.884,23.884,0,0,1-4.147,1.44,17.434,17.434,0,0,1-4.147.5,12.677,12.677,0,0,1-4.894-.92,11.542,11.542,0,0,1-3.834-2.551,11.289,11.289,0,0,1-2.5-3.9,14.469,14.469,0,0,1,0-9.96,11.2,11.2,0,0,1,6.282-6.454,12.439,12.439,0,0,1,4.839-.92,15.78,15.78,0,0,1,7.392,1.909v4.233a11.676,11.676,0,0,0-6.731-2.429,8.165,8.165,0,0,0-3.262.642,7.6,7.6,0,0,0-2.568,1.787,8.012,8.012,0,0,0-1.666,2.724,9.887,9.887,0,0,0-.59,3.488,10.178,10.178,0,0,0,.572,3.487,8.135,8.135,0,0,0,1.613,2.725,7.392,7.392,0,0,0,2.483,1.787,7.7,7.7,0,0,0,3.173.642,7.815,7.815,0,0,0,1.84-.226,12.922,12.922,0,0,0,1.874-.607v-5.31h-5.066V667.3h9.335Z" transform="translate(-3170.559 -655.888)" fill="#fff"/>
      <path id="Path_1528" data-name="Path 1528" d="M3231.841,656.3h8.294a9.535,9.535,0,0,1,3.313.555,7.889,7.889,0,0,1,2.6,1.544,6.912,6.912,0,0,1,1.7,2.377,7.554,7.554,0,0,1,.607,3.054,7.011,7.011,0,0,1-4.824,6.871l5.656,9.473h-4.927l-5.136-8.848h-2.845v8.848h-4.442Zm4.442,11.416h3.227a4.309,4.309,0,0,0,3.053-1.093,3.637,3.637,0,0,0,1.181-2.793,3.677,3.677,0,0,0-1.181-2.828,4.309,4.309,0,0,0-3.053-1.093h-3.227Z" transform="translate(-3170.559 -655.888)" fill="#fff"/>
      <path id="Path_1529" data-name="Path 1529" d="M3253.563,656.3H3268v3.713h-9.926v6.211h8.572v3.644h-8.572v6.593h10.2v3.713h-14.714Z" transform="translate(-3170.559 -655.888)" fill="#fff"/>
      <path id="Path_1530" data-name="Path 1530" d="M3272.129,674.8a12.313,12.313,0,0,0,6.662,2.152,5.159,5.159,0,0,0,3.21-.937,2.948,2.948,0,0,0,1.231-2.464,2.384,2.384,0,0,0-.849-1.926,7.629,7.629,0,0,0-2.152-1.214q-1.3-.5-2.793-.972a12.385,12.385,0,0,1-2.793-1.267,7,7,0,0,1-2.153-2.047,5.833,5.833,0,0,1-.849-3.331,6.238,6.238,0,0,1,.625-2.794,6.509,6.509,0,0,1,1.752-2.186,8.144,8.144,0,0,1,2.707-1.422,11.3,11.3,0,0,1,3.453-.5,16.881,16.881,0,0,1,6.42,1.319v4.129a13.538,13.538,0,0,0-3.073-1.353,10.814,10.814,0,0,0-3.035-.451,5.169,5.169,0,0,0-3.106.867,2.732,2.732,0,0,0-1.2,2.326,2.243,2.243,0,0,0,.851,1.856,8.136,8.136,0,0,0,2.151,1.18q1.3.5,2.794.971a12.015,12.015,0,0,1,2.793,1.285,7.028,7.028,0,0,1,2.152,2.1,6,6,0,0,1,.85,3.366,6.5,6.5,0,0,1-.642,2.88,6.638,6.638,0,0,1-1.787,2.256,8.4,8.4,0,0,1-2.742,1.457,11.253,11.253,0,0,1-3.5.521,15.717,15.717,0,0,1-3.488-.4,17.758,17.758,0,0,1-3.487-1.2Z" transform="translate(-3170.559 -655.888)" fill="#fff"/>
      <path id="Path_1531" data-name="Path 1531" d="M3298.848,656.3h3.886l9.405,23.874h-4.477l-2.185-5.725h-9.405l-2.186,5.725h-4.443Zm-1.493,14.748h6.872L3300.791,662Z" transform="translate(-3170.559 -655.888)" fill="#fff"/>
      <path id="Path_1532" data-name="Path 1532" d="M3315.4,656.3h8.293a9.542,9.542,0,0,1,3.315.555,7.9,7.9,0,0,1,2.6,1.544,6.9,6.9,0,0,1,1.7,2.377,7.554,7.554,0,0,1,.607,3.054,7.012,7.012,0,0,1-4.824,6.871l5.656,9.473h-4.927l-5.135-8.848h-2.846v8.848H3315.4Zm4.442,11.416h3.226a4.316,4.316,0,0,0,3.055-1.093,3.644,3.644,0,0,0,1.18-2.793,3.683,3.683,0,0,0-1.18-2.828,4.316,4.316,0,0,0-3.055-1.093h-3.226Z" transform="translate(-3170.559 -655.888)" fill="#fff"/>
    </g>
  </svg>
