<svg xmlns="http://www.w3.org/2000/svg" width="294.401" height="64.528" viewBox="0 0 294.401 64.528">
    <rect id="Rectangle_73" data-name="Rectangle 73" width="294.401" height="64.528" rx="17" fill="#606060"/>
    <path id="Path_1061" data-name="Path 1061" d="M1053.175,1854.014v21.533l17-10.956Z" transform="translate(-1031.856 -1831.861)" fill="#fff"/>
    <g id="Group_379" data-name="Group 379" transform="translate(-1031.856 -1831.861)">
      <g id="Group_378" data-name="Group 378">
        <path id="Path_1062" data-name="Path 1062" d="M1094.534,1875.091h-3.886l-9.4-23.874h4.65l6.7,17.628,6.663-17.628h4.684Z" fill="#fff"/>
        <path id="Path_1063" data-name="Path 1063" d="M1107.2,1851.217h14.436v3.713h-9.925v6.211h8.571v3.643h-8.571v6.594h10.2v3.713H1107.2Z" fill="#fff"/>
        <path id="Path_1064" data-name="Path 1064" d="M1126.736,1851.217h8.294a9.539,9.539,0,0,1,3.314.554,7.918,7.918,0,0,1,2.6,1.544,6.916,6.916,0,0,1,1.7,2.377,7.555,7.555,0,0,1,.607,3.054,7.007,7.007,0,0,1-4.823,6.871l5.656,9.474h-4.927l-5.137-8.849h-2.845v8.849h-4.442Zm4.442,11.416h3.227a4.314,4.314,0,0,0,3.054-1.093,3.641,3.641,0,0,0,1.18-2.794,3.683,3.683,0,0,0-1.18-2.828,4.314,4.314,0,0,0-3.054-1.093h-3.227Z" fill="#fff"/>
        <path id="Path_1065" data-name="Path 1065" d="M1161.056,1854.93H1153.8v-3.713h19.016v3.713H1165.6v20.161h-4.546Z" fill="#fff"/>
        <path id="Path_1066" data-name="Path 1066" d="M1197.11,1866.173a9.181,9.181,0,0,1-.763,3.765,8.755,8.755,0,0,1-2.118,2.95,9.758,9.758,0,0,1-3.227,1.925,12.529,12.529,0,0,1-8.224,0,9.769,9.769,0,0,1-3.227-1.925,8.542,8.542,0,0,1-2.1-2.95,9.337,9.337,0,0,1-.746-3.765v-14.956h4.511v14.643a6.116,6.116,0,0,0,.433,2.342,5.843,5.843,0,0,0,1.18,1.84,5.193,5.193,0,0,0,1.787,1.214,5.889,5.889,0,0,0,2.291.434,5.756,5.756,0,0,0,2.273-.434,5.412,5.412,0,0,0,2.966-3.054,6.329,6.329,0,0,0,.417-2.342v-14.643h4.546Z" fill="#fff"/>
        <path id="Path_1067" data-name="Path 1067" d="M1208.214,1854.93h-7.253v-3.713h19.017v3.713h-7.218v20.161h-4.546Z" fill="#fff"/>
        <path id="Path_1068" data-name="Path 1068" d="M1221.574,1863.153a13.839,13.839,0,0,1,.868-4.979,11.613,11.613,0,0,1,2.412-3.9,10.977,10.977,0,0,1,3.678-2.551,12.477,12.477,0,0,1,9.4,0,10.987,10.987,0,0,1,3.678,2.551,11.629,11.629,0,0,1,2.412,3.9,14.717,14.717,0,0,1,0,9.959,11.643,11.643,0,0,1-2.412,3.9,10.987,10.987,0,0,1-3.678,2.551,12.489,12.489,0,0,1-9.4,0,10.977,10.977,0,0,1-3.678-2.551,11.627,11.627,0,0,1-2.412-3.9A13.841,13.841,0,0,1,1221.574,1863.153Zm4.685,0a11.144,11.144,0,0,0,.5,3.436,8.38,8.38,0,0,0,1.423,2.707,6.351,6.351,0,0,0,2.2,1.769,6.461,6.461,0,0,0,7.9-1.769,8.4,8.4,0,0,0,1.423-2.707,11.985,11.985,0,0,0,0-6.871,8.373,8.373,0,0,0-1.423-2.706,6.457,6.457,0,0,0-10.1,0,8.354,8.354,0,0,0-1.423,2.706A11.137,11.137,0,0,0,1226.259,1863.153Z" fill="#fff"/>
        <path id="Path_1069" data-name="Path 1069" d="M1249.508,1851.217h8.294a9.539,9.539,0,0,1,3.314.554,7.918,7.918,0,0,1,2.6,1.544,6.914,6.914,0,0,1,1.7,2.377,7.555,7.555,0,0,1,.607,3.054,7.007,7.007,0,0,1-4.823,6.871l5.656,9.474h-4.927l-5.137-8.849h-2.845v8.849h-4.442Zm4.442,11.416h3.227a4.314,4.314,0,0,0,3.054-1.093,3.641,3.641,0,0,0,1.18-2.794,3.683,3.683,0,0,0-1.18-2.828,4.314,4.314,0,0,0-3.054-1.093h-3.227Z" fill="#fff"/>
        <path id="Path_1070" data-name="Path 1070" d="M1271.231,1851.217h4.511v23.874h-4.511Z" fill="#fff"/>
        <path id="Path_1071" data-name="Path 1071" d="M1288.408,1851.217h3.886l9.405,23.874h-4.477l-2.186-5.726h-9.4l-2.186,5.726H1279Zm-1.492,14.748h6.871l-3.435-9.058Z" fill="#fff"/>
        <path id="Path_1072" data-name="Path 1072" d="M1304.96,1851.217h4.511v20.161h9.578v3.713H1304.96Z" fill="#fff"/>
      </g>
    </g>
  </svg>
  