<?xml version="1.0" encoding="utf-8"?>
<!-- Generator: Adobe Illustrator 26.3.1, SVG Export Plug-In . SVG Version: 6.00 Build 0)  -->
<svg version="1.1" id="Capa_1" xmlns="http://www.w3.org/2000/svg" xmlns:xlink="http://www.w3.org/1999/xlink" x="0px" y="0px"
	 viewBox="0 0 294.4 64.5" style="enable-background:new 0 0 294.4 64.5;" xml:space="preserve">
<style type="text/css">
	.st0{fill:url(#SVGID_1_);}
	.st1{enable-background:new    ;}
	.st2{fill:#FFFFFF;}
	.st3{fill:none;stroke:#FFFFFF;stroke-width:0.8328;stroke-miterlimit:10;}
</style>
<g>
	
		<linearGradient id="SVGID_1_" gradientUnits="userSpaceOnUse" x1="0" y1="33.0256" x2="294.5" y2="33.0256" gradientTransform="matrix(1 0 0 -1 0 65.2756)">
		<stop  offset="0.2046" style="stop-color:#F05235"/>
		<stop  offset="0.8634" style="stop-color:#F8951D"/>
	</linearGradient>
	<path class="st0" d="M284.1,64.5H10.3C4.6,64.5,0,59.9,0,54.3v-44C0,4.6,4.6,0,10.3,0h273.9c5.7,0,10.3,4.6,10.3,10.3v44
		C294.4,59.9,289.8,64.5,284.1,64.5z"/>
	<g>
		<g class="st1">
			<path class="st2" d="M50,21.1l-9,21.2h-7l-9-21.2h7.7l5.1,12.4L43,21.1H50z"/>
			<path class="st2" d="M68.3,37v5.4H50.7V21.1h17.2v5.4H57.7V29h9v5.2h-9V37H68.3z"/>
			<path class="st2" d="M80.2,37h-1.9v5.3h-7.2V21.1h10.2c2,0,3.7,0.3,5.1,1s2.6,1.6,3.4,2.8c0.8,1.2,1.2,2.6,1.2,4.2
				c0,1.5-0.3,2.8-1,4c-0.7,1.1-1.7,2-3,2.7l4.5,6.5h-7.6L80.2,37z M83,27.3c-0.5-0.4-1.2-0.7-2.2-0.7h-2.6v5h2.6
				c1,0,1.7-0.2,2.2-0.7s0.7-1,0.7-1.8S83.5,27.8,83,27.3z"/>
			<path class="st2" d="M107.4,26.7h-6.2v-5.5h19.6v5.5h-6.2v15.7h-7.2V26.7z"/>
			<path class="st2" d="M124.8,40.2c-1.8-1.8-2.7-4.2-2.7-7.4V21.1h7.2v11.5c0,1.6,0.3,2.7,0.8,3.4s1.4,1.1,2.4,1.1
				c1.1,0,1.9-0.4,2.4-1.1c0.6-0.7,0.8-1.8,0.8-3.4V21.1h7v11.7c0,3.2-0.9,5.6-2.7,7.4s-4.4,2.6-7.6,2.6S126.6,42,124.8,40.2z"/>
			<path class="st2" d="M150.3,26.7h-6.2v-5.5h19.6v5.5h-6.2v15.7h-7.2V26.7z"/>
			<path class="st2" d="M170.2,41.4c-1.8-0.9-3.2-2.3-4.3-4c-1-1.7-1.5-3.6-1.5-5.7c0-2.1,0.5-4,1.5-5.7c1-1.7,2.5-3,4.3-4
				c1.8-0.9,3.9-1.4,6.2-1.4c2.3,0,4.3,0.5,6.2,1.4c1.8,1,3.2,2.3,4.3,4c1,1.7,1.5,3.6,1.5,5.7c0,2.1-0.5,4-1.5,5.7
				c-1,1.7-2.5,3-4.3,4s-3.9,1.4-6.2,1.4C174.1,42.8,172,42.4,170.2,41.4z M178.8,36.4c0.7-0.4,1.3-1.1,1.7-1.8
				c0.4-0.8,0.6-1.7,0.6-2.8c0-1.1-0.2-2-0.6-2.8c-0.4-0.8-1-1.4-1.7-1.8c-0.7-0.4-1.5-0.7-2.4-0.7c-0.9,0-1.7,0.2-2.4,0.7
				s-1.3,1.1-1.7,1.8c-0.4,0.8-0.6,1.7-0.6,2.8c0,1.1,0.2,2,0.6,2.8c0.4,0.8,1,1.4,1.7,1.8s1.5,0.7,2.4,0.7
				C177.3,37.1,178.1,36.8,178.8,36.4z"/>
			<path class="st2" d="M200,37h-1.9v5.3h-7.2V21.1h10.2c2,0,3.7,0.3,5.1,1c1.5,0.6,2.6,1.6,3.4,2.8c0.8,1.2,1.2,2.6,1.2,4.2
				c0,1.5-0.3,2.8-1,4c-0.7,1.1-1.7,2-3,2.7l4.5,6.5h-7.6L200,37z M202.9,27.3c-0.5-0.4-1.2-0.7-2.2-0.7h-2.6v5h2.6
				c1,0,1.7-0.2,2.2-0.7c0.5-0.4,0.7-1,0.7-1.8S203.4,27.8,202.9,27.3z"/>
			<path class="st2" d="M213.5,21.1h7.2v21.2h-7.2V21.1z"/>
			<path class="st2" d="M238.6,38.7h-8.1l-1.4,3.7h-7.3l9.3-21.2h7l9.3,21.2H240L238.6,38.7z M236.6,33.5l-2.1-5.3l-2.1,5.3H236.6z"
				/>
			<path class="st2" d="M248.6,21.1h7.2v15.7h9.6v5.5h-16.7V21.1z"/>
		</g>
		<g class="st1">
			<path class="st3" d="M52.5,23.6l-9,21.2h-7l-9-21.2h7.7L40.3,36l5.2-12.4H52.5z"/>
			<path class="st3" d="M70.8,39.5v5.4H53.2V23.6h17.2V29H60.2v2.5h9v5.2h-9v2.8H70.8z"/>
			<path class="st3" d="M82.7,39.5h-1.9v5.3h-7.2V23.6h10.2c2,0,3.7,0.3,5.1,1s2.6,1.6,3.4,2.8c0.8,1.2,1.2,2.6,1.2,4.2
				c0,1.5-0.3,2.8-1,4c-0.7,1.1-1.7,2-3,2.7l4.5,6.5h-7.6L82.7,39.5z M85.5,29.8c-0.5-0.4-1.2-0.7-2.2-0.7h-2.6v5h2.6
				c1,0,1.7-0.2,2.2-0.7s0.7-1,0.7-1.8S86,30.2,85.5,29.8z"/>
			<path class="st3" d="M109.9,29.2h-6.2v-5.5h19.6v5.5H117v15.7h-7.2V29.2z"/>
			<path class="st3" d="M127.3,42.7c-1.8-1.8-2.7-4.2-2.7-7.4V23.6h7.2v11.5c0,1.6,0.3,2.7,0.8,3.4s1.4,1.1,2.4,1.1
				c1.1,0,1.9-0.4,2.4-1.1c0.6-0.7,0.8-1.8,0.8-3.4V23.6h7v11.7c0,3.2-0.9,5.6-2.7,7.4s-4.4,2.6-7.6,2.6S129.1,44.5,127.3,42.7z"/>
			<path class="st3" d="M152.8,29.2h-6.2v-5.5h19.6v5.5H160v15.7h-7.2V29.2z"/>
			<path class="st3" d="M172.7,43.9c-1.8-0.9-3.2-2.3-4.3-4c-1-1.7-1.5-3.6-1.5-5.7c0-2.1,0.5-4,1.5-5.7c1-1.7,2.5-3,4.3-4
				c1.8-0.9,3.9-1.4,6.2-1.4c2.3,0,4.3,0.5,6.2,1.4c1.8,1,3.2,2.3,4.3,4c1,1.7,1.5,3.6,1.5,5.7c0,2.1-0.5,4-1.5,5.7
				c-1,1.7-2.5,3-4.3,4s-3.9,1.4-6.2,1.4C176.6,45.3,174.5,44.9,172.7,43.9z M181.3,38.9c0.7-0.4,1.3-1.1,1.7-1.8
				c0.4-0.8,0.6-1.7,0.6-2.8c0-1.1-0.2-2-0.6-2.8c-0.4-0.8-1-1.4-1.7-1.8c-0.7-0.4-1.5-0.7-2.4-0.7c-0.9,0-1.7,0.2-2.4,0.7
				s-1.3,1.1-1.7,1.8c-0.4,0.8-0.6,1.7-0.6,2.8c0,1.1,0.2,2,0.6,2.8c0.4,0.8,1,1.4,1.7,1.8s1.5,0.7,2.4,0.7
				C179.8,39.6,180.6,39.3,181.3,38.9z"/>
			<path class="st3" d="M202.5,39.5h-1.9v5.3h-7.2V23.6h10.2c2,0,3.7,0.3,5.1,1c1.5,0.6,2.6,1.6,3.4,2.8c0.8,1.2,1.2,2.6,1.2,4.2
				c0,1.5-0.3,2.8-1,4c-0.7,1.1-1.7,2-3,2.7l4.5,6.5h-7.6L202.5,39.5z M205.4,29.8c-0.5-0.4-1.2-0.7-2.2-0.7h-2.6v5h2.6
				c1,0,1.7-0.2,2.2-0.7c0.5-0.4,0.7-1,0.7-1.8S205.9,30.2,205.4,29.8z"/>
			<path class="st3" d="M216,23.6h7.2v21.2H216V23.6z"/>
			<path class="st3" d="M241.1,41.2H233l-1.4,3.7h-7.3l9.3-21.2h7l9.3,21.2h-7.4L241.1,41.2z M239.1,36l-2.1-5.3L235,36H239.1z"/>
			<path class="st3" d="M251.1,23.6h7.2v15.7h9.6v5.5h-16.7V23.6z"/>
		</g>
	</g>
</g>
</svg>
