<svg xmlns="http://www.w3.org/2000/svg" width="176.401" height="64.528" viewBox="0 0 176.401 64.528">
    <rect id="Rectangle_44" data-name="Rectangle 44" width="176.401" height="64.528" rx="13.294" fill="#606060"/>
    <path id="Path_378" data-name="Path 378" d="M5056.222,1993.833v21.533l17-10.956Z" transform="translate(-5034.903 -1971.68)" fill="#fff"/>
    <g id="Group_188" data-name="Group 188" transform="translate(-5034.903 -1971.68)">
      <g id="Group_187" data-name="Group 187">
        <path id="Path_379" data-name="Path 379" d="M5083.914,1995.429h12.845v3.446h-7.989v3.76h7.544v3.446h-7.544v4.125h8.276v3.446h-13.132Z" fill="#fff"/>
        <path id="Path_380" data-name="Path 380" d="M5100.077,1995.429h6.188l6.161,12.376h.053l-.079-12.376h4.438v18.223h-6.03l-6.37-12.453h-.053l.156,12.453h-4.464Z" fill="#fff"/>
        <path id="Path_381" data-name="Path 381" d="M5118.879,1995.429h5.17l4.046,14.307h.051l4.074-14.307h4.987l-6.215,18.223h-6Z" fill="#fff"/>
        <path id="Path_382" data-name="Path 382" d="M5139.4,1995.429h4.857v18.223H5139.4Z" fill="#fff"/>
        <path id="Path_383" data-name="Path 383" d="M5153.319,1995.429h5.952l7.024,18.223h-5.326l-1.358-3.889h-6.84l-1.436,3.889H5146.4Zm2.976,3.759h-.052l-2.349,7.128h4.569Z" fill="#fff"/>
        <path id="Path_384" data-name="Path 384" d="M5168.074,1995.429h8.668c3.237,0,5.874,1.463,5.874,4.6a4.26,4.26,0,0,1-3.5,4.595v.052c1.568.418,1.672,1.8,2.586,4.02l1.776,4.961h-5.066l-1.044-3.29c-.992-3.133-1.619-3.916-3.42-3.916h-1.019v7.206h-4.856Zm4.856,7.571h1.279c1.566,0,3.551-.052,3.551-2.114,0-1.7-1.7-2.011-3.551-2.011h-1.279Z" fill="#fff"/>
      </g>
    </g>
  </svg>
  