<?xml version="1.0" encoding="utf-8"?>
<!-- Generator: Adobe Illustrator 26.3.1, SVG Export Plug-In . SVG Version: 6.00 Build 0)  -->
<svg version="1.1" id="Capa_1" xmlns="http://www.w3.org/2000/svg" xmlns:xlink="http://www.w3.org/1999/xlink" x="0px" y="0px"
	 viewBox="0 0 176.4 64.5" style="enable-background:new 0 0 176.4 64.5;" xml:space="preserve">
<style type="text/css">
	.st0{fill:url(#SVGID_1_);}
	.st1{enable-background:new    ;}
	.st2{fill:#FFFFFF;}
	.st3{fill:none;stroke:#FFFFFF;stroke-width:0.7713;stroke-miterlimit:10;}
</style>
<g>
	
		<linearGradient id="SVGID_1_" gradientUnits="userSpaceOnUse" x1="0" y1="33.0256" x2="176.5" y2="33.0256" gradientTransform="matrix(1 0 0 -1 0 65.2756)">
		<stop  offset="0.2046" style="stop-color:#F05235"/>
		<stop  offset="0.8634" style="stop-color:#F8951D"/>
	</linearGradient>
	<path class="st0" d="M166.1,64.5H10.3C4.6,64.5,0,59.9,0,54.3v-44C0,4.6,4.6,0,10.3,0h155.9c5.7,0,10.3,4.6,10.3,10.3v44
		C176.4,59.9,171.8,64.5,166.1,64.5z"/>
	<g>
		<g class="st1">
			<path class="st2" d="M37.1,37.8v6.2H17V19.8h19.7v6.2H25v2.8h10.2v5.9H25v3.2H37.1z"/>
			<path class="st2" d="M64.1,19.8v24.2h-6.7l-9.2-11v11h-7.9V19.8h6.7l9.2,11v-11H64.1z"/>
			<path class="st2" d="M93.9,19.8L83.6,43.9h-8L65.4,19.8h8.8l5.8,14.1l5.9-14.1H93.9z"/>
			<path class="st2" d="M94.6,19.8h8.2v24.2h-8.2V19.8z"/>
			<path class="st2" d="M123.2,39.7H114l-1.6,4.2h-8.3l10.6-24.2h8l10.6,24.2h-8.4L123.2,39.7z M121,33.9l-2.3-6.1l-2.3,6.1H121z"/>
			<path class="st2" d="M145,37.9h-2.2v6.1h-8.2V19.8h11.6c2.2,0,4.2,0.4,5.8,1.1c1.7,0.7,2.9,1.8,3.8,3.2c0.9,1.4,1.3,3,1.3,4.8
				c0,1.7-0.4,3.2-1.2,4.5s-1.9,2.3-3.4,3.1l5.1,7.5h-8.7L145,37.9z M148.2,26.8c-0.6-0.5-1.4-0.7-2.5-0.7h-3v5.7h3
				c1.1,0,1.9-0.2,2.5-0.7c0.6-0.5,0.8-1.2,0.8-2.1S148.8,27.3,148.2,26.8z"/>
		</g>
		<g class="st1">
			<path class="st3" d="M39.9,40.6v6.2H19.8V22.6h19.7v6.2H27.8v2.8h10.2v5.9H27.8v3.2H39.9z"/>
			<path class="st3" d="M66.9,22.6v24.2h-6.7l-9.2-11v11h-7.9V22.6h6.7l9.2,11v-11H66.9z"/>
			<path class="st3" d="M96.7,22.6L86.5,46.8h-8L68.2,22.6H77l5.8,14.1l5.9-14.1H96.7z"/>
			<path class="st3" d="M97.5,22.6h8.2v24.2h-8.2V22.6z"/>
			<path class="st3" d="M126.1,42.6h-9.2l-1.6,4.2H107l10.6-24.2h8l10.6,24.2h-8.4L126.1,42.6z M123.8,36.7l-2.3-6.1l-2.3,6.1H123.8
				z"/>
			<path class="st3" d="M147.8,40.7h-2.2v6.1h-8.2V22.6h11.6c2.2,0,4.2,0.4,5.8,1.1c1.7,0.7,2.9,1.8,3.8,3.2c0.9,1.4,1.3,3,1.3,4.8
				c0,1.7-0.4,3.2-1.2,4.5c-0.8,1.3-1.9,2.3-3.4,3.1l5.1,7.5h-8.7L147.8,40.7z M151.1,29.6c-0.6-0.5-1.4-0.7-2.5-0.7h-3v5.7h3
				c1.1,0,1.9-0.2,2.5-0.7c0.6-0.5,0.8-1.2,0.8-2.1S151.6,30.1,151.1,29.6z"/>
		</g>
	</g>
</g>
</svg>
