<svg id="Layer_1" data-name="Layer 1" xmlns="http://www.w3.org/2000/svg" xmlns:xlink="http://www.w3.org/1999/xlink" viewBox="0 0 648 177"><defs><style>.cls-1,.cls-7{fill:none;}.cls-2{font-size:75.03px;}.cls-2,.cls-8{fill:#fff;font-family:Montserrat-Black, Montserrat;font-weight:800;}.cls-3{letter-spacing:-0.01em;}.cls-4{letter-spacing:0em;}.cls-5{clip-path:url(#clip-path);}.cls-6{fill:url(#linear-gradient);}.cls-7{stroke:#fff;stroke-miterlimit:10;stroke-width:0.77px;}.cls-8{font-size:74.93px;}</style><clipPath id="clip-path"><path class="cls-1" d="M28.23,1.2h592.4A27.36,27.36,0,0,1,648,28.57V146.11a27.37,27.37,0,0,1-27.37,27.37H28.23A27.37,27.37,0,0,1,.87,146.11V28.57A27.36,27.36,0,0,1,28.23,1.2Z"/></clipPath><linearGradient id="linear-gradient" x1="1953.05" y1="509.03" x2="1955.72" y2="509.03" gradientTransform="matrix(242.46, 0, 0, -242.46, -473543.26, 123509.8)" gradientUnits="userSpaceOnUse"><stop offset="0" stop-color="#f05235"/><stop offset="0.2" stop-color="#f05235"/><stop offset="0.86" stop-color="#f8951d"/><stop offset="1" stop-color="#f8951d"/></linearGradient></defs><title>ingresar</title><text class="cls-2" transform="translate(40.91 111.1)">REGI<tspan class="cls-3" x="190.34" y="0">S</tspan><tspan class="cls-4" x="238.89" y="0">TRARSE</tspan></text><g class="cls-5"><rect class="cls-6" x="0.87" y="1.2" width="647.13" height="172.27"/></g><rect class="cls-7" x="118.57" y="60.54" width="17.68" height="52.45"/><polygon class="cls-7" points="179.26 60.54 179.26 84.37 159.33 60.54 144.79 60.54 144.79 112.99 162.03 112.99 162.03 89.16 181.96 112.99 196.49 112.99 196.49 60.54 179.26 60.54"/><path class="cls-7" d="M239.72,98.6a16.63,16.63,0,0,1-6.44,1.28,11.93,11.93,0,0,1-9.1-3.6,13.24,13.24,0,0,1-3.41-9.52q0-6.06,3.44-9.59a12.45,12.45,0,0,1,9.29-3.52q6.83,0,11.77,5.77l11.31-10a25.85,25.85,0,0,0-10.15-7.53,35,35,0,0,0-13.82-2.59,33,33,0,0,0-15.33,3.49,25.84,25.84,0,0,0-10.56,9.74,26.8,26.8,0,0,0-3.78,14.19,26.81,26.81,0,0,0,3.78,14.2,26,26,0,0,0,10.45,9.74,32,32,0,0,0,15.06,3.49,44.81,44.81,0,0,0,12.06-1.72,35.7,35.7,0,0,0,10.8-5V85.34H239.72Z"/><path class="cls-7" d="M294,80.32a5.78,5.78,0,0,1-1.79,4.53,7.85,7.85,0,0,1-5.4,1.62h-6.44V74.18h6.44a7.85,7.85,0,0,1,5.4,1.61A5.78,5.78,0,0,1,294,80.32Zm.08,32.67h18.88l-11-16.19a18,18,0,0,0,7.35-6.66,18.54,18.54,0,0,0,2.55-9.82,18.13,18.13,0,0,0-11.24-17.38,31,31,0,0,0-12.67-2.4H262.65V113h17.69V99.8h4.79Z"/><polygon class="cls-7" points="335.86 99.65 335.86 92.76 358.04 92.76 358.04 80.02 335.86 80.02 335.86 73.88 361.11 73.88 361.11 60.54 318.47 60.54 318.47 112.99 362.08 112.99 362.08 99.65 335.86 99.65"/><path class="cls-7" d="M388.46,114.19a34,34,0,0,0,13.37-2.36,18.75,18.75,0,0,0,8.28-6.37,15.37,15.37,0,0,0,2.77-8.95q0-5.7-3-9a17.59,17.59,0,0,0-7.16-4.75,68.07,68.07,0,0,0-10.11-2.59,43.57,43.57,0,0,1-6.67-1.68c-1.35-.53-2-1.32-2-2.36,0-2.2,2.28-3.3,6.82-3.3a32.57,32.57,0,0,1,14.61,3.89l5.33-12.81a33.36,33.36,0,0,0-9.19-3.41,48.76,48.76,0,0,0-10.6-1.16,34.54,34.54,0,0,0-13.37,2.32A18.4,18.4,0,0,0,369.2,68a15.56,15.56,0,0,0-2.77,9q0,5.68,3,9a17.26,17.26,0,0,0,7.05,4.8,76.45,76.45,0,0,0,10.11,2.73,44,44,0,0,1,6.78,1.8c1.38.55,2.06,1.38,2.06,2.47a2.29,2.29,0,0,1-1.57,2.14,13.92,13.92,0,0,1-5.24.71,33,33,0,0,1-8.92-1.31,36.3,36.3,0,0,1-8.4-3.48l-5.69,12.88a34.18,34.18,0,0,0,10.15,3.94A55.36,55.36,0,0,0,388.46,114.19Z"/><path class="cls-7" d="M438.81,91.11l5.09-13.19L449,91.11ZM457.39,113h18.28L452.74,60.54H435.36L412.43,113h18l3.52-9.14h19.93Z"/><path class="cls-7" d="M509.84,80.32a5.75,5.75,0,0,1-1.8,4.53,7.85,7.85,0,0,1-5.4,1.62H496.2V74.18h6.44a7.85,7.85,0,0,1,5.4,1.61A5.75,5.75,0,0,1,509.84,80.32Zm.07,32.67h18.88l-11-16.19a18,18,0,0,0,7.34-6.66,18.54,18.54,0,0,0,2.55-9.82,18.13,18.13,0,0,0-11.24-17.38,30.92,30.92,0,0,0-12.66-2.4H478.52V113H496.2V99.8H501Z"/><text class="cls-8" transform="translate(108 105.04)">INGRESAR</text></svg>