<?xml version="1.0" encoding="utf-8"?>
<!-- Generator: Adobe Illustrator 26.3.1, SVG Export Plug-In . SVG Version: 6.00 Build 0)  -->
<svg version="1.1" id="Layer_1" xmlns="http://www.w3.org/2000/svg" xmlns:xlink="http://www.w3.org/1999/xlink" x="0px" y="0px"
	 viewBox="0 0 298 120" style="enable-background:new 0 0 298 120;" xml:space="preserve">
<style type="text/css">
	.st0{fill:#FFFFFF;}
	.st1{fill:#5E565D;}
	.st2{fill:#058BCC;}
</style>
<g>
	
		<image style="overflow:visible;opacity:0.38;enable-background:new    ;" width="304" height="120" xlink:href="1E5A401B.png"  transform="matrix(0.996 0 0 0.996 -2.3969 0.2381)">
	</image>
	<g>
		<g>
			<path class="st0" d="M278.9,29.2c-1.9-2.5-4.7-4.2-7.7-4.8c0-3.2-1.3-6.3-3.5-8.6c-2.4-2.4-5.6-3.8-8.9-3.8c-0.4,0-0.9,0-1.3,0.1
				l-6.1,0.7c-5.1,0.6-9.4,4.2-10.7,9.2l-0.6,2.2c-1.7,0.1-3.2,0.6-4.7,1.3c-3.6-1.5-7.8-2.4-12.7-2.4s-9.5,0.9-13.7,2.6
				c-1.8-0.9-3.7-1.4-5.8-1.4h-8.5c-4.9,0-9.3,2.9-11.3,7.3l-2.1,4.8l-0.3-1.8c-1-6-6.2-10.4-12.2-10.4h-8.6c-2,0-4,0.5-5.7,1.4
				c-4.3-2-9.3-3.1-14.9-3.1c-10.9,0-19.4,3.8-25.7,9.8c-5.7-6.2-14-9.8-24-9.8c-6.3,0-12,1.3-17.1,3.8c-2.1-1.5-4.6-2.4-7.3-2.4
				H30.4c-6.2,0-11.4,4.6-12.3,10.7L16.8,44c-0.5,3.6,0.6,7.2,2.9,9.9c1.1,1.3,2.5,2.3,4,3L13.1,69.2c-1.6,1.8-2.6,4.1-2.9,6.5
				l-1.1,8.6c-0.5,3.5,0.6,7.1,3,9.8c2.4,2.7,5.8,4.2,9.3,4.2h36.5c3,0,5.8-1.1,8-3c4.8,2.8,10.7,4.4,17.2,4.4
				c10.2,0,19-3.5,25.7-9.8c5.7,6.2,14.1,9.8,24,9.8c10.2,0,19-3.5,25.7-9.8c1.7,5,6.4,8.4,11.7,8.4h9.4c4.8,0,9.1-2.7,11.2-7.1
				l1.1-2.4c5.4,6.7,13.8,10.5,24,10.5c8,0,15.3-2.2,22.2-6.7c4.3,4.3,10.5,6.7,17.5,6.7c6.2,0,12.1-1.8,17.5-5.3
				c5.2-3.4,7.1-10,4.5-15.7l-2.5-5.4c-1.4-3-4-5.4-7.2-6.5c-0.8-0.3-1.6-0.5-2.5-0.6l1.5-10.8h0.1c5.5,0,10.4-3.6,11.9-8.9l1.8-6.1
				C282,36.4,281.2,32.4,278.9,29.2z"/>
			<polygon class="st1" points="64.5,45 65.6,36.4 30.4,36.4 29.1,45.8 49.7,45.8 22.6,77.3 21.4,85.9 57.9,85.9 60.4,76.6 
				37.3,76.6 			"/>
			<path class="st1" d="M256.2,42.8h11l1.8-6.1h-11.9l1.7-12.2l-6.1,0.7l-3,11.5h-8.8l-0.8,6.1h8.5L244.3,73c-1.3,9,3.2,14,11.4,14
				c3.7,0,7.3-1,10.8-3.3l-2.5-5.4c-2.6,1.3-4.8,2.1-7.3,2.1c-3.9,0-5.3-2.2-4.6-7.3L256.2,42.8z"/>
			<path class="st2" d="M139.6,35c-18.8,0-25.7,16-26.6,28.8c4,0.2,8.1,0.3,12.2,0.4c0.6-8.5,3.9-20.1,13.7-20.1
				c5.5,0,8.4,3.3,8.3,10.8c0,2.7-0.3,6.2-1,9.6c4.2,0,8.3-0.1,12.4-0.1c0.6-2.9,0.9-5.8,0.9-8.5C159.6,43,152.5,35,139.6,35z"/>
			<path class="st1" d="M133.5,78.2c-4.7,0-7.5-2.5-8.2-7.9c-4.1-0.1-8.2-0.2-12.2-0.4c1.2,10.8,8.1,17.4,19.7,17.4
				c13.1,0,20.4-7.9,24-16.9c-4.1,0.1-8.3,0.1-12.6,0.1C142.1,74.9,138.8,78.2,133.5,78.2z"/>
			<path class="st2" d="M89.9,35c-16.8,0-24.2,12.8-26.1,24.7c3.7,0.6,7.8,1.1,12,1.5c1.1-8,4.7-17.2,13.4-17.2
				c5.5,0,8.4,3.3,8.3,10.8c0,2.4-0.2,5.2-0.7,8.1c4,0.3,8.1,0.5,12.2,0.7c0.5-2.7,0.8-5.4,0.8-7.9C109.9,43,102.8,35,89.9,35z"/>
			<path class="st1" d="M83.9,78.2c-5.5,0-8.4-3.4-8.4-10.9c0,0,0,0,0-0.1c-4.3-0.5-8.4-1-12.2-1.5c0,0.2,0,0.5,0,0.7
				c0,12.9,7.1,20.9,19.9,20.9c13.5,0,20.8-8.3,24.2-17.6c-4.2-0.2-8.3-0.4-12.3-0.7C93.2,74.1,89.7,78.2,83.9,78.2z"/>
			<path class="st1" d="M222.7,35.6c-16.4,0-23.6,14.1-25,26.7c-2.3,0.2-4.6,0.4-7,0.6l12.5-26.2h-8.5l-18.9,42.1l-7.1-42.1h-8.5
				l10.1,49.2h9.4l8-16.8c3.4-0.2,6.7-0.5,9.8-0.8C197.9,80,204.5,87,216,87c6.6,0,12.2-2.2,17.4-6l-3.4-5.3
				c-4.5,3.3-8.5,4.7-13.3,4.7c-6.5,0-11-3.4-11.1-12.9c2-0.2,3.8-0.5,5.6-0.8c6.8-1,12.9-2.4,17.5-4.7c5.8-2.9,9.4-7.3,9.4-14.1
				C238.1,41.4,232.9,35.6,222.7,35.6z M220.5,58.7c-3.4,0.9-14,2.6-14.5,2.6c1.3-9.3,5.9-19.5,16.7-19.5c5.5,0,7.2,3.6,7.2,6.4
				C229.8,53.4,226.5,56.6,220.5,58.7z"/>
		</g>
	</g>
</g>
</svg>
