<svg xmlns="http://www.w3.org/2000/svg" width="239.162" height="60.671" viewBox="0 0 239.162 60.671">
    <g id="Group_19" data-name="Group 19" transform="translate(-3553.005 -1990.19)">
      <path id="Path_413" data-name="Path 413" d="M3594.6,2009.991l1.085-8.318h-34l-1.266,9.042h19.892l-26.221,30.471-1.085,8.319h35.263l2.351-9.042h-22.243Z" fill="#5e565d"/>
      <path id="Path_414" data-name="Path 414" d="M3779.87,2007.822h10.579l1.718-5.877h-11.483l1.627-11.755-5.877.633-2.894,11.122h-8.5l-.814,5.877h8.228l-4.159,29.2c-1.266,8.68,3.074,13.563,11.031,13.563a18.666,18.666,0,0,0,10.4-3.165l-2.441-5.244a15.187,15.187,0,0,1-7.053,1.989c-3.8,0-5.153-2.08-4.43-7.053Z" fill="#5e565d"/>
      <path id="Path_415" data-name="Path 415" d="M3667.205,2000.317c-18.159,0-24.876,15.462-25.683,27.818,3.892.152,7.831.274,11.788.367.611-8.224,3.768-19.415,13.262-19.415,5.335,0,8.138,3.165,8.047,10.4a43.475,43.475,0,0,1-1,9.23c4.042-.009,8.047-.05,11.987-.122a40.6,40.6,0,0,0,.86-8.2C3686.464,2008.093,3679.592,2000.317,3667.205,2000.317Z" fill="#008dce"/>
      <path id="Path_416" data-name="Path 416" d="M3661.328,2042.09c-4.58,0-7.287-2.407-7.964-7.662q-5.978-.138-11.749-.361c1.153,10.477,7.85,16.794,19.08,16.794,12.684,0,19.757-7.59,23.161-16.329q-5.966.1-12.206.1C3669.637,2038.88,3666.4,2042.09,3661.328,2042.09Z" fill="#5e565d"/>
      <path id="Path_417" data-name="Path 417" d="M3619.193,2000.317c-16.271,0-23.353,12.413-25.232,23.882,3.612.535,7.51,1.023,11.64,1.463,1.09-7.739,4.523-16.575,12.959-16.575,5.334,0,8.137,3.165,8.047,10.4a44.2,44.2,0,0,1-.719,7.858c3.861.243,7.814.454,11.83.633a40.517,40.517,0,0,0,.734-7.586C3638.452,2008.093,3631.58,2000.317,3619.193,2000.317Z" fill="#008dce"/>
      <path id="Path_418" data-name="Path 418" d="M3613.315,2042.09c-5.334,0-8.137-3.255-8.137-10.488v-.071c-4.183-.452-8.111-.948-11.745-1.485,0,.217-.01.437-.01.652,0,12.477,6.872,20.163,19.259,20.163,13.022,0,20.129-8,23.424-17.029q-6.082-.287-11.838-.667C3622.329,2038.116,3618.953,2042.09,3613.315,2042.09Z" fill="#5e565d"/>
      <path id="Path_419" data-name="Path 419" d="M3747.5,2000.859c-15.837,0-22.754,13.583-24.141,25.794q-3.266.312-6.783.578l12.114-25.286h-8.228l-18.264,40.688-6.872-40.688H3687.1l9.765,47.56h9.042l7.755-16.188q4.969-.345,9.451-.772c.422,11.3,6.787,18.045,17.878,18.045a27.65,27.65,0,0,0,16.818-5.787l-3.255-5.154c-4.34,3.165-8.228,4.521-12.839,4.521-6.308,0-10.638-3.327-10.757-12.48,1.9-.237,3.719-.486,5.42-.749,6.554-.923,12.422-2.287,16.913-4.559,5.584-2.825,9.039-7.054,9.039-13.587C3762.328,2006.465,3757.355,2000.859,3747.5,2000.859Zm-2.207,22.31c-3.258.916-13.488,2.507-13.978,2.556,1.265-8.952,5.7-18.807,16.094-18.807,5.335,0,6.962,3.526,6.962,6.148C3754.371,2018.137,3751.173,2021.214,3745.293,2023.169Z" fill="#5e565d"/>
    </g>
  </svg>
