<?xml version="1.0" encoding="utf-8"?>
<!-- Generator: Adobe Illustrator 26.3.1, SVG Export Plug-In . SVG Version: 6.00 Build 0)  -->
<svg version="1.1" id="Capa_1" xmlns="http://www.w3.org/2000/svg" xmlns:xlink="http://www.w3.org/1999/xlink" x="0px" y="0px"
	 viewBox="0 0 279.8 138.8" style="enable-background:new 0 0 279.8 138.8;" xml:space="preserve">
<style type="text/css">
	.st0{fill:#FFFFFF;}
	.st1{fill:#058BCC;}
	.st2{fill:none;stroke:#5F575E;stroke-width:0.6068;stroke-miterlimit:10;}
	.st3{fill:#5F575E;}
	.st4{fill:#88409B;}
	.st5{font-family:'Montserrat-ExtraBold';}
	.st6{font-size:22.0608px;}
	.st7{font-size:9.3579px;}
</style>
<g>
	<g>
		
			<image style="overflow:visible;opacity:0.38;" width="297" height="139" xlink:href="1F304188.png"  transform="matrix(1 0 0 1 -6.0716 -6.6326)">
		</image>
		<g>
			<g>
				<path class="st0" d="M279.8,63.7c0-3.7-0.9-7.1-2.8-10.1c-1.8-3-4.4-5.3-7.6-7c-3.1-1.5-6.5-2.3-10.2-2.3c-3.7,0-7,0.8-10,2.3
					c0,0,0-0.1,0-0.1c0-0.4,0-0.8-0.1-1.2c0-0.4,0.1-0.8,0.1-1.1c0-3.3-1.4-6.2-3.8-8.3c-1.5-1.3-4.2-2.9-8.2-2.9
					c-3.2,0-6.1,1.1-8.4,3.1c-2.4,2.1-3.7,5.1-3.7,8.3c0,0.1,0,0.3,0,0.4c-0.6,0.1-1.1,0.2-1.6,0.4c-0.7-0.3-1.5-0.4-2.3-0.4H213
					c-2.3,0-4.4,1.2-5.6,2.9c-2.7-1.9-6.1-3-10.1-3.2l11.5-19.7c1.9-3.2,0.8-7.4-2.4-9.3l-3.5-2c-1.1-0.6-2.2-0.9-3.4-0.9
					c-0.6,0-1.1,0.1-1.7,0.2c-1.7,0.5-3.2,1.6-4.2,3.1l-1.1,1.9c-0.2-0.2-0.4-0.5-0.6-0.7c-1.7-2-4-3.6-6.6-4.6
					c-1.9-0.7-3.8-1.1-5.7-1.1c-0.8,0-1.6,0.1-2.3,0.2c-0.5,0.1-1,0.2-1.5,0.3l0.5-3c0.6-3.7-2-7.2-5.7-7.8l-4-0.6
					c-0.3-0.1-0.7-0.1-1-0.1c-1.4,0-2.8,0.5-4,1.3c-1.4,1-2.3,2.5-2.7,4.2c-0.4,0-0.9-0.1-1.3-0.1c-1.8,0-3.6,0.3-5.3,0.9
					c-2.6,1-4.8,2.6-6.5,4.8c-1.6,2.1-2.7,4.6-3.2,7.4l-0.1-1c-0.5-5.5-3.2-8.5-5.3-10.1c-2.4-1.8-5.3-2.6-8.6-2.6
					c-0.6,0-1.3,0-2,0.1c-1,0.1-2,0.3-3,0.5c-0.1-0.9-0.4-1.8-1-2.7c-1.3-2-3.5-3.2-5.8-3.2c-0.5,0-1,0.1-1.5,0.2l-4.6,1.1
					c-1.8,0.4-3.3,1.5-4.3,3.1l-3.2,5.2c-1.8-0.8-3.8-1.2-5.8-1.3c-0.3,0-0.7,0-1,0c-2.8,0-5.7,0.6-8.5,1.9l-9,3.9
					c-3.4,1.5-5,5.5-3.5,9l7.2,16.6c-0.6-0.2-1.3-0.3-1.9-0.3h-8.6c-3.8,0-6.8,3-6.8,6.8v0.4c-0.3,0.1-0.5,0.3-0.8,0.5
					c-0.2-0.1-0.5-0.3-0.7-0.4c-2.9-1.5-6.2-2.2-9.7-2.2c-1.6,0-3.2,0.2-4.7,0.5c0.1-1.4-0.3-2.9-1.1-4.1c-1.3-1.9-3.4-3.1-5.7-3.1
					h-8.8c-2.7,0-5.2,1.6-6.3,4.1l-2.4,5.7l-2.3-5.6c-1.1-2.5-3.5-4.2-6.3-4.2H6.8c-2.3,0-4.4,1.1-5.7,3.1c-1,1.5-1.3,3.2-1,4.9
					c-0.2,1.3-0.1,2.6,0.4,3.8L14,81c1.1,2.5,3.5,4.1,6.3,4.1h8.8c2.7,0,5.2-1.6,6.3-4.1l1.8-4.2c1.8,2.7,4.3,4.8,7.3,6.3
					c3.1,1.6,6.7,2.3,10.6,2.3c5.9,0,10.6-1.7,14.2-5c0.3,0.3,0.6,0.6,0.9,0.9c3,2.7,7,4.1,11.9,4.1c0.5,0,1,0,1.4,0
					c-1.4,1.1-2.4,2.6-2.7,4.5l-0.6,4.3c-0.3,2,0.3,3.9,1.6,5.4c0.3,0.4,0.6,0.7,1,0.9l-4.1,4.7c-0.9,1-1.4,2.2-1.6,3.6l-0.5,4
					c-0.3,1.9,0.3,3.9,1.6,5.4c1.3,1.5,3.2,2.3,5.1,2.3h16.9c1.4,0,2.7-0.4,3.8-1.1c2.3,1.2,4.9,1.8,7.9,1.8c4.6,0,8.6-1.4,11.8-4.1
					c2.8,2.6,6.6,4.1,11.1,4.1c4.4,0,8.4-1.4,11.5-3.9c1.2,1.9,3.4,3.2,5.8,3.2h4.3c2.5,0,4.8-1.4,6-3.6c2.7,2.7,6.5,4.1,10.8,4.1
					c3.6,0,7-0.9,10.1-2.8c2.1,1.8,5,2.8,8.2,2.8c3.1,0,6-0.9,8.7-2.6c2.8-1.8,3.9-5.5,2.5-8.6l-1.2-2.5c-0.8-1.7-2.2-2.9-3.9-3.6
					c-0.1,0-0.2-0.1-0.3-0.1l0.4-3.1c2.6-0.3,4.9-2.2,5.7-4.8l0.8-2.8c0.6-2.1,0.2-4.3-1.1-6c-0.6-0.8-1.3-1.4-2.1-1.9h6.6
					c1,0,1.9-0.2,2.7-0.6c0.8,0.4,1.7,0.6,2.7,0.6h8.6c2.4,0,4.4-1.2,5.7-3c1.2,1.8,3.3,3,5.7,3h8.6c2.4,0,4.5-1.2,5.7-3.1
					c0.6,0.4,1.2,0.8,1.9,1.1c3.1,1.6,6.5,2.4,10.2,2.4c3.7,0,7.2-0.8,10.2-2.4c3.2-1.7,5.8-4,7.6-7c1.8-3,2.8-6.4,2.8-10.1
					c0-0.4,0-0.8,0-1.2C279.8,64.5,279.8,64.1,279.8,63.7z"/>
				<g>
					<g>
						<path class="st1" d="M42.6,46.8L29.1,78.3h-8.8L6.8,46.8h9.6L25,67.3l8.7-20.5H42.6z"/>
						<path class="st1" d="M67,68.2H49.3c0.4,1.3,1.1,2.2,2.1,2.9c1,0.7,2.3,1,3.9,1c1.2,0,2.2-0.2,3-0.5c0.9-0.3,1.7-0.9,2.6-1.6
							l4.5,4.7c-2.4,2.6-5.8,4-10.4,4c-2.9,0-5.4-0.5-7.5-1.6c-2.2-1.1-3.8-2.6-5-4.5c-1.2-1.9-1.8-4.1-1.8-6.5
							c0-2.4,0.6-4.6,1.7-6.5c1.2-1.9,2.8-3.4,4.8-4.5c2-1.1,4.3-1.6,6.9-1.6c2.4,0,4.6,0.5,6.6,1.5c2,1,3.5,2.5,4.7,4.4
							c1.2,1.9,1.7,4.2,1.7,6.8C67.1,66.2,67.1,66.9,67,68.2z M50.8,60.7c-0.9,0.8-1.4,1.8-1.7,3.1h10c-0.2-1.3-0.8-2.3-1.7-3.1
							c-0.9-0.8-2-1.1-3.3-1.1C52.8,59.5,51.7,59.9,50.8,60.7z"/>
						<path class="st1" d="M88,77.3c-0.7,0.5-1.6,0.8-2.6,1c-1,0.2-2.1,0.4-3.3,0.4c-3.2,0-5.6-0.8-7.3-2.3c-1.7-1.6-2.6-3.9-2.6-7
							v-8.2h-3.6v-6.4h3.6v-6.3h8.6v6.3h5.6v6.4h-5.6v8.1c0,0.9,0.2,1.6,0.7,2c0.5,0.5,1.1,0.7,1.9,0.7c1,0,1.9-0.3,2.6-0.8L88,77.3
							z"/>
						<path class="st1" d="M115.3,68.2H97.6c0.4,1.3,1.1,2.2,2.1,2.9c1,0.7,2.3,1,3.9,1c1.2,0,2.2-0.2,3-0.5
							c0.9-0.3,1.7-0.9,2.6-1.6l4.5,4.7c-2.4,2.6-5.8,4-10.4,4c-2.9,0-5.4-0.5-7.5-1.6c-2.2-1.1-3.8-2.6-5-4.5
							C89.6,70.6,89,68.5,89,66c0-2.4,0.6-4.6,1.7-6.5c1.2-1.9,2.8-3.4,4.8-4.5c2-1.1,4.3-1.6,6.9-1.6c2.4,0,4.6,0.5,6.6,1.5
							c2,1,3.5,2.5,4.7,4.4c1.2,1.9,1.7,4.2,1.7,6.8C115.5,66.2,115.4,66.9,115.3,68.2z M99.1,60.7c-0.9,0.8-1.4,1.8-1.7,3.1h10
							c-0.2-1.3-0.8-2.3-1.7-3.1c-0.9-0.8-2-1.1-3.3-1.1C101.1,59.5,100,59.9,99.1,60.7z"/>
						<path class="st1" d="M131,54.3c1.4-0.6,3-0.8,4.8-0.8v7.7c-0.8-0.1-1.4-0.1-1.9-0.1c-1.8,0-3.3,0.5-4.3,1.5
							c-1,1-1.6,2.5-1.6,4.5v11.2h-8.6V53.9h8.2v2.9C128.4,55.7,129.6,54.9,131,54.3z"/>
						<path class="st1" d="M139.8,49.9c-1-0.9-1.4-2-1.4-3.2c0-1.3,0.5-2.4,1.4-3.2c1-0.9,2.2-1.3,3.8-1.3c1.6,0,2.8,0.4,3.8,1.2
							c1,0.8,1.4,1.9,1.4,3.2c0,1.4-0.5,2.5-1.4,3.4c-1,0.9-2.2,1.3-3.8,1.3C142,51.2,140.7,50.7,139.8,49.9z M139.3,53.9h8.6v24.4
							h-8.6V53.9z"/>
						<path class="st1" d="M176.6,56.2c1.8,1.8,2.8,4.5,2.8,8.2v14h-8.6V65.7c0-3.3-1.3-5-4-5c-1.5,0-2.7,0.5-3.5,1.4
							c-0.9,1-1.3,2.4-1.3,4.3v11.8h-8.6V53.9h8.2v2.7c1-1,2.1-1.7,3.4-2.3c1.3-0.5,2.8-0.8,4.3-0.8
							C172.3,53.5,174.7,54.4,176.6,56.2z"/>
						<path class="st1" d="M204.4,56.2c2.1,1.8,3.2,4.7,3.2,8.5v13.6h-8v-3.2c-1.2,2.4-3.6,3.6-7.2,3.6c-1.9,0-3.5-0.3-4.9-1
							c-1.4-0.7-2.4-1.6-3.1-2.7c-0.7-1.1-1.1-2.4-1.1-3.9c0-2.3,0.9-4.1,2.7-5.4c1.8-1.3,4.5-1.9,8.2-1.9h4.9
							c-0.2-2.6-1.9-3.9-5.2-3.9c-1.2,0-2.4,0.2-3.6,0.6c-1.2,0.4-2.2,0.9-3.1,1.6l-2.9-5.8c1.4-0.9,3-1.6,4.9-2.1
							c1.9-0.5,3.9-0.7,5.8-0.7C199.2,53.5,202.3,54.4,204.4,56.2z M197.4,72.6c0.7-0.5,1.3-1.2,1.6-2.1v-2.1h-3.7
							c-2.5,0-3.7,0.8-3.7,2.5c0,0.8,0.3,1.4,0.9,1.8c0.6,0.5,1.4,0.7,2.3,0.7C195.8,73.3,196.7,73,197.4,72.6z"/>
						<path class="st1" d="M224.6,54.3c1.4-0.6,3-0.8,4.8-0.8v7.7c-0.8-0.1-1.4-0.1-1.9-0.1c-1.8,0-3.3,0.5-4.3,1.5
							c-1,1-1.6,2.5-1.6,4.5v11.2H213V53.9h8.2v2.9C222,55.7,223.2,54.9,224.6,54.3z"/>
						<path class="st1" d="M233.4,49.9c-1-0.9-1.4-2-1.4-3.2c0-1.3,0.5-2.4,1.4-3.2c1-0.9,2.2-1.3,3.8-1.3c1.6,0,2.8,0.4,3.8,1.2
							c1,0.8,1.4,1.9,1.4,3.2c0,1.4-0.5,2.5-1.4,3.4c-1,0.9-2.2,1.3-3.8,1.3C235.6,51.2,234.3,50.7,233.4,49.9z M232.9,53.9h8.6
							v24.4h-8.6V53.9z"/>
						<path class="st1" d="M252.1,77.1c-2.1-1.1-3.7-2.6-4.9-4.5c-1.2-1.9-1.8-4.1-1.8-6.5c0-2.4,0.6-4.6,1.8-6.5
							c1.2-1.9,2.8-3.4,4.9-4.5c2.1-1.1,4.5-1.6,7.1-1.6c2.6,0,5,0.5,7.1,1.6c2.1,1.1,3.7,2.6,4.9,4.5c1.2,1.9,1.8,4.1,1.8,6.5
							c0,2.4-0.6,4.6-1.8,6.5c-1.2,1.9-2.8,3.4-4.9,4.5c-2.1,1.1-4.5,1.6-7.1,1.6C256.6,78.7,254.2,78.1,252.1,77.1z M262.9,70.3
							c1-1,1.4-2.5,1.4-4.3c0-1.8-0.5-3.2-1.4-4.2c-1-1-2.2-1.5-3.7-1.5c-1.5,0-2.7,0.5-3.7,1.5c-1,1-1.4,2.4-1.4,4.2
							c0,1.8,0.5,3.3,1.4,4.3c1,1,2.2,1.6,3.7,1.6C260.7,71.9,261.9,71.4,262.9,70.3z"/>
					</g>
					<g>
						<path class="st2" d="M42.6,44.4L29.1,76h-8.8L6.8,44.4h9.6L25,65l8.7-20.5H42.6z"/>
						<path class="st2" d="M67,65.9H49.3c0.4,1.3,1.1,2.2,2.1,2.9c1,0.7,2.3,1,3.9,1c1.2,0,2.2-0.2,3-0.5c0.9-0.3,1.7-0.9,2.6-1.6
							l4.5,4.7c-2.4,2.6-5.8,4-10.4,4c-2.9,0-5.4-0.5-7.5-1.6c-2.2-1.1-3.8-2.6-5-4.5c-1.2-1.9-1.8-4.1-1.8-6.5
							c0-2.4,0.6-4.6,1.7-6.5c1.2-1.9,2.8-3.4,4.8-4.5c2-1.1,4.3-1.6,6.9-1.6c2.4,0,4.6,0.5,6.6,1.5c2,1,3.5,2.5,4.7,4.4
							c1.2,1.9,1.7,4.2,1.7,6.8C67.1,63.9,67.1,64.6,67,65.9z M50.8,58.4c-0.9,0.8-1.4,1.8-1.7,3.1h10c-0.2-1.3-0.8-2.3-1.7-3.1
							c-0.9-0.8-2-1.1-3.3-1.1C52.8,57.2,51.7,57.6,50.8,58.4z"/>
						<path class="st2" d="M88,75c-0.7,0.5-1.6,0.8-2.6,1c-1,0.2-2.1,0.4-3.3,0.4c-3.2,0-5.6-0.8-7.3-2.3c-1.7-1.6-2.6-3.9-2.6-7
							v-8.2h-3.6v-6.4h3.6v-6.3h8.6v6.3h5.6v6.4h-5.6V67c0,0.9,0.2,1.6,0.7,2c0.5,0.5,1.1,0.7,1.9,0.7c1,0,1.9-0.3,2.6-0.8L88,75z"
							/>
						<path class="st2" d="M115.3,65.9H97.6c0.4,1.3,1.1,2.2,2.1,2.9c1,0.7,2.3,1,3.9,1c1.2,0,2.2-0.2,3-0.5
							c0.9-0.3,1.7-0.9,2.6-1.6l4.5,4.7c-2.4,2.6-5.8,4-10.4,4c-2.9,0-5.4-0.5-7.5-1.6c-2.2-1.1-3.8-2.6-5-4.5
							c-1.2-1.9-1.8-4.1-1.8-6.5c0-2.4,0.6-4.6,1.7-6.5c1.2-1.9,2.8-3.4,4.8-4.5c2-1.1,4.3-1.6,6.9-1.6c2.4,0,4.6,0.5,6.6,1.5
							c2,1,3.5,2.5,4.7,4.4c1.2,1.9,1.7,4.2,1.7,6.8C115.5,63.9,115.4,64.6,115.3,65.9z M99.1,58.4c-0.9,0.8-1.4,1.8-1.7,3.1h10
							c-0.2-1.3-0.8-2.3-1.7-3.1c-0.9-0.8-2-1.1-3.3-1.1C101.1,57.2,100,57.6,99.1,58.4z"/>
						<path class="st2" d="M131,52c1.4-0.6,3-0.8,4.8-0.8v7.7c-0.8-0.1-1.4-0.1-1.9-0.1c-1.8,0-3.3,0.5-4.3,1.5
							c-1,1-1.6,2.5-1.6,4.5V76h-8.6V51.6h8.2v2.9C128.4,53.4,129.6,52.5,131,52z"/>
						<path class="st2" d="M139.8,47.5c-1-0.9-1.4-2-1.4-3.2c0-1.3,0.5-2.4,1.4-3.2c1-0.9,2.2-1.3,3.8-1.3c1.6,0,2.8,0.4,3.8,1.2
							c1,0.8,1.4,1.9,1.4,3.2c0,1.4-0.5,2.5-1.4,3.4c-1,0.9-2.2,1.3-3.8,1.3C142,48.9,140.7,48.4,139.8,47.5z M139.3,51.6h8.6V76
							h-8.6V51.6z"/>
						<path class="st2" d="M176.6,53.9c1.8,1.8,2.8,4.5,2.8,8.2v14h-8.6V63.4c0-3.3-1.3-5-4-5c-1.5,0-2.7,0.5-3.5,1.4
							c-0.9,1-1.3,2.4-1.3,4.3V76h-8.6V51.6h8.2v2.7c1-1,2.1-1.7,3.4-2.3c1.3-0.5,2.8-0.8,4.3-0.8C172.3,51.1,174.7,52,176.6,53.9z"
							/>
						<path class="st2" d="M204.4,53.9c2.1,1.8,3.2,4.7,3.2,8.5V76h-8v-3.2c-1.2,2.4-3.6,3.6-7.2,3.6c-1.9,0-3.5-0.3-4.9-1
							c-1.4-0.7-2.4-1.6-3.1-2.7c-0.7-1.1-1.1-2.4-1.1-3.9c0-2.3,0.9-4.1,2.7-5.4c1.8-1.3,4.5-1.9,8.2-1.9h4.9
							c-0.2-2.6-1.9-3.9-5.2-3.9c-1.2,0-2.4,0.2-3.6,0.6c-1.2,0.4-2.2,0.9-3.1,1.6l-2.9-5.8c1.4-0.9,3-1.6,4.9-2.1
							c1.9-0.5,3.9-0.7,5.8-0.7C199.2,51.1,202.3,52.1,204.4,53.9z M197.4,70.2c0.7-0.5,1.3-1.2,1.6-2.1V66h-3.7
							c-2.5,0-3.7,0.8-3.7,2.5c0,0.8,0.3,1.4,0.9,1.8c0.6,0.5,1.4,0.7,2.3,0.7C195.8,71,196.7,70.7,197.4,70.2z"/>
						<path class="st2" d="M224.6,52c1.4-0.6,3-0.8,4.8-0.8v7.7c-0.8-0.1-1.4-0.1-1.9-0.1c-1.8,0-3.3,0.5-4.3,1.5
							c-1,1-1.6,2.5-1.6,4.5V76H213V51.6h8.2v2.9C222,53.4,223.2,52.5,224.6,52z"/>
						<path class="st2" d="M233.4,47.5c-1-0.9-1.4-2-1.4-3.2c0-1.3,0.5-2.4,1.4-3.2c1-0.9,2.2-1.3,3.8-1.3c1.6,0,2.8,0.4,3.8,1.2
							c1,0.8,1.4,1.9,1.4,3.2c0,1.4-0.5,2.5-1.4,3.4c-1,0.9-2.2,1.3-3.8,1.3C235.6,48.9,234.3,48.4,233.4,47.5z M232.9,51.6h8.6V76
							h-8.6V51.6z"/>
						<path class="st2" d="M252.1,74.7c-2.1-1.1-3.7-2.6-4.9-4.5c-1.2-1.9-1.8-4.1-1.8-6.5c0-2.4,0.6-4.6,1.8-6.5
							c1.2-1.9,2.8-3.4,4.9-4.5c2.1-1.1,4.5-1.6,7.1-1.6c2.6,0,5,0.5,7.1,1.6c2.1,1.1,3.7,2.6,4.9,4.5c1.2,1.9,1.8,4.1,1.8,6.5
							c0,2.4-0.6,4.6-1.8,6.5c-1.2,1.9-2.8,3.4-4.9,4.5c-2.1,1.1-4.5,1.6-7.1,1.6C256.6,76.4,254.2,75.8,252.1,74.7z M262.9,68
							c1-1,1.4-2.5,1.4-4.3c0-1.8-0.5-3.2-1.4-4.2c-1-1-2.2-1.5-3.7-1.5c-1.5,0-2.7,0.5-3.7,1.5c-1,1-1.4,2.4-1.4,4.2
							c0,1.8,0.5,3.3,1.4,4.3c1,1,2.2,1.6,3.7,1.6C260.7,69.6,261.9,69,262.9,68z"/>
					</g>
					<g>
						<path class="st3" d="M81.6,20.2l9-3.9c2.2-1,4.3-1.4,6.4-1.3c2.1,0.1,3.9,0.7,5.5,1.9c1.6,1.1,2.9,2.7,3.8,4.8
							c0.9,2,1.2,4,0.9,6c-0.3,2-1.1,3.8-2.4,5.3c-1.3,1.6-3.1,2.9-5.3,3.8l-9,3.9L81.6,20.2z M98,33.7c1.5-0.7,2.7-1.5,3.6-2.6
							c0.9-1.1,1.4-2.3,1.6-3.6c0.2-1.3-0.1-2.7-0.7-4.1c-0.6-1.4-1.5-2.5-2.5-3.3c-1.1-0.8-2.3-1.2-3.7-1.3
							c-1.4-0.1-2.9,0.2-4.4,0.9l-5,2.2L93,35.9L98,33.7z"/>
						<path class="st3" d="M112.2,7.9l4.6-1.1l-4.5,5.5l-3.4,0.8L112.2,7.9z M110.2,15.3l3.9-0.9l3.8,16.7l-3.9,0.9L110.2,15.3z"/>
						<path class="st3" d="M133.1,13.4c1.4,1.1,2.3,2.8,2.5,5.2l1,10l-3.8,0.4l-0.2-2.1c-0.4,0.8-1.1,1.4-1.9,1.9
							c-0.9,0.5-1.9,0.8-3.2,0.9c-1.3,0.1-2.4,0-3.4-0.3c-1-0.3-1.8-0.9-2.4-1.6c-0.6-0.7-0.9-1.6-1-2.6c-0.1-1.5,0.3-2.8,1.3-3.9
							c1-1,2.8-1.7,5.2-1.9l4.4-0.4l0-0.3c-0.1-1.2-0.6-2.1-1.3-2.6c-0.8-0.6-1.9-0.8-3.3-0.6c-1,0.1-1.9,0.3-2.8,0.7
							c-0.9,0.4-1.6,0.9-2.2,1.5l-1.8-2.8c0.8-0.8,1.9-1.4,3.1-1.9c1.2-0.5,2.5-0.8,3.9-0.9C129.7,11.9,131.7,12.3,133.1,13.4z
							 M130.7,25.8c0.7-0.5,1.2-1.2,1.5-2.1l-0.2-2l-4.1,0.4c-2.3,0.2-3.4,1.1-3.2,2.6c0.1,0.7,0.4,1.3,1,1.6
							c0.6,0.4,1.4,0.5,2.5,0.4C129.1,26.6,129.9,26.3,130.7,25.8z"/>
						<path class="st3" d="M169.5,7.8l-3.6,23.5l-3.8-0.6l0.3-2.2c-0.8,0.7-1.7,1.2-2.7,1.4c-1,0.3-2.1,0.3-3.3,0.1
							c-1.6-0.3-3-0.8-4.2-1.8c-1.2-0.9-2.1-2.1-2.6-3.5c-0.5-1.4-0.7-3-0.4-4.7c0.3-1.7,0.9-3.2,1.8-4.4c0.9-1.2,2.1-2.1,3.5-2.6
							c1.4-0.5,2.9-0.7,4.6-0.4c1.1,0.2,2.1,0.5,3,1c0.9,0.5,1.6,1.2,2.1,2.1l1.3-8.7L169.5,7.8z M160.1,26.5
							c0.8-0.3,1.5-0.8,2.1-1.6c0.6-0.7,0.9-1.6,1.1-2.7c0.2-1.1,0.1-2-0.2-2.9c-0.3-0.9-0.8-1.6-1.5-2.1c-0.7-0.6-1.5-0.9-2.5-1
							c-1-0.1-1.8-0.1-2.7,0.3c-0.8,0.3-1.5,0.8-2.1,1.6c-0.6,0.7-0.9,1.6-1.1,2.7c-0.2,1.1-0.1,2,0.2,2.9c0.3,0.9,0.8,1.6,1.5,2.1
							c0.7,0.6,1.5,0.9,2.5,1C158.4,26.9,159.3,26.9,160.1,26.5z"/>
						<path class="st3" d="M187.5,31.2l-12.6-4.7c-0.2,1.3,0,2.4,0.7,3.5c0.7,1,1.7,1.8,3.1,2.3c1.8,0.7,3.4,0.6,5-0.1l1.2,3.1
							c-1,0.6-2.2,0.9-3.5,0.9c-1.3,0-2.6-0.2-4-0.7c-1.8-0.7-3.2-1.6-4.3-2.8c-1.1-1.2-1.8-2.6-2-4.1c-0.3-1.5-0.1-3.1,0.5-4.7
							c0.6-1.6,1.5-2.8,2.6-3.8c1.2-1,2.5-1.6,4.1-1.8c1.5-0.2,3.1-0.1,4.7,0.5c1.6,0.6,2.8,1.4,3.8,2.6c1,1.2,1.6,2.5,1.8,4
							c0.2,1.5,0,3.1-0.6,4.7C187.9,30.4,187.7,30.8,187.5,31.2z M178.4,21.7c-1.1,0.4-2,1.2-2.6,2.3l9.1,3.4
							c0.3-1.2,0.1-2.3-0.4-3.4c-0.6-1-1.4-1.8-2.7-2.2C180.7,21.4,179.5,21.3,178.4,21.7z"/>
						<path class="st3" d="M199.5,19.3l3.5,2l-12.1,20.5l-3.5-2L199.5,19.3z"/>
					</g>
					<g>
						<polygon class="st3" points="103.2,94.9 103.8,90.9 87.5,90.9 86.9,95.2 96.4,95.2 83.9,109.8 83.4,113.7 100.2,113.7 
							101.3,109.4 90.7,109.4 						"/>
						<path class="st3" d="M191.8,93.8h5.1l0.8-2.8h-5.5l0.8-5.6l-2.8,0.3l-1.4,5.3h-4.1l-0.4,2.8h3.9l-2,14
							c-0.6,4.1,1.5,6.5,5.3,6.5c1.7,0,3.4-0.5,5-1.5l-1.2-2.5c-1.2,0.6-2.2,1-3.4,1c-1.8,0-2.5-1-2.1-3.4L191.8,93.8z"/>
						<path class="st1" d="M137.9,90.2c-8.7,0-11.9,7.4-12.3,13.3c1.9,0.1,3.7,0.1,5.6,0.2c0.3-3.9,1.8-9.3,6.3-9.3
							c2.5,0,3.9,1.5,3.8,5c0,1.3-0.1,2.8-0.5,4.4c1.9,0,3.8,0,5.7-0.1c0.3-1.4,0.4-2.7,0.4-3.9C147.1,94,143.9,90.2,137.9,90.2z"/>
						<path class="st3" d="M135.1,110.2c-2.2,0-3.5-1.2-3.8-3.7c-1.9,0-3.8-0.1-5.6-0.2c0.6,5,3.8,8,9.1,8c6.1,0,9.4-3.6,11.1-7.8
							c-1.9,0-3.8,0-5.8,0C139.1,108.7,137.5,110.2,135.1,110.2z"/>
						<path class="st1" d="M115,90.2c-7.8,0-11.2,5.9-12.1,11.4c1.7,0.3,3.6,0.5,5.6,0.7c0.5-3.7,2.2-7.9,6.2-7.9
							c2.5,0,3.9,1.5,3.8,5c0,1.1-0.1,2.4-0.3,3.8c1.8,0.1,3.7,0.2,5.7,0.3c0.2-1.3,0.4-2.5,0.4-3.6C124.2,94,120.9,90.2,115,90.2z"
							/>
						<path class="st3" d="M112.2,110.2c-2.5,0-3.9-1.6-3.9-5c0,0,0,0,0,0c-2-0.2-3.9-0.5-5.6-0.7c0,0.1,0,0.2,0,0.3
							c0,6,3.3,9.6,9.2,9.6c6.2,0,9.6-3.8,11.2-8.1c-1.9-0.1-3.8-0.2-5.7-0.3C116.5,108.3,114.9,110.2,112.2,110.2z"/>
						<path class="st3" d="M176.3,90.5c-7.6,0-10.9,6.5-11.5,12.3c-1,0.1-2.1,0.2-3.2,0.3l5.8-12.1h-3.9l-8.7,19.4L151.4,91h-3.9
							l4.7,22.7h4.3l3.7-7.7c1.6-0.1,3.1-0.2,4.5-0.4c0.2,5.4,3.2,8.6,8.5,8.6c3,0,5.6-1,8-2.8l-1.6-2.5c-2.1,1.5-3.9,2.2-6.1,2.2
							c-3,0-5.1-1.6-5.1-6c0.9-0.1,1.8-0.2,2.6-0.4c3.1-0.4,5.9-1.1,8.1-2.2c2.7-1.3,4.3-3.4,4.3-6.5
							C183.4,93.2,181,90.5,176.3,90.5z M175.2,101.2c-1.6,0.4-6.4,1.2-6.7,1.2c0.6-4.3,2.7-9,7.7-9c2.5,0,3.3,1.7,3.3,2.9
							C179.6,98.8,178.1,100.2,175.2,101.2z"/>
					</g>
				</g>
			</g>
		</g>
	</g>
	<g>
		
			<image style="overflow:visible;opacity:0.38;" width="70" height="69" xlink:href="1F304189.png"  transform="matrix(1 0 0 1 189.9284 73.3674)">
		</image>
		<g>
			<g>
				<circle class="st4" cx="224.5" cy="103.5" r="23.7"/>
				<g>
					<g>
						<text transform="matrix(0.9388 0.1636 -0.1717 0.9852 207.6124 101.3864)" class="st0 st5 st6">3ra</text>
					</g>
					<g>
						<text transform="matrix(0.9388 0.1636 -0.1717 0.9852 204.9068 111.4968)" class="st0 st5 st7">Edición</text>
					</g>
				</g>
				<g>
					<path class="st4" d="M241.4,131l-41.8-7.3c-2.1-0.4-3.6-2.4-3.2-4.6l0.4-2.1c0.4-2.1,2.4-3.6,4.6-3.2l41.8,7.3
						c2.1,0.4,3.6,2.4,3.2,4.6l-0.4,2.1C245.6,129.9,243.5,131.3,241.4,131z"/>
					<g>
						<path class="st0" d="M197.6,121.5L218,125l1.1-6.3l-20.4-3.6L197.6,121.5z M213.3,122.9l0.6,0.1l0.7-3.7l-0.6-0.1l0-0.1l1,0.2
							c0,0,0.1,0,0.1,0c0,0,0.1,0,0.1,0c0,0,0.1,0,0.1,0c0,0,0.1,0,0.1,0c0.2,0,0.4,0.1,0.6,0.1c0.2,0.1,0.3,0.1,0.4,0.3
							c0.1,0.1,0.2,0.2,0.2,0.4c0,0.1,0,0.3,0,0.4c0,0.1,0,0.1-0.1,0.2c0,0.1-0.1,0.2-0.2,0.2c-0.1,0.1-0.2,0.1-0.3,0.2
							c-0.1,0.1-0.3,0.1-0.5,0.1l0,0c0.1,0,0.1,0,0.2,0.1c0.1,0,0.2,0.1,0.3,0.2c0.1,0.1,0.2,0.1,0.3,0.2c0.1,0.1,0.1,0.2,0.1,0.3
							c0,0.1,0,0.2,0,0.3c0,0.1,0,0.2,0,0.3c0,0.1,0,0.2,0,0.3c0,0.1,0,0.2,0,0.2c0,0.1,0,0.2,0.1,0.3c0,0.1,0.1,0.1,0.2,0.2
							c0,0,0.1,0,0.2,0c0.1,0,0.1,0,0.2-0.1l0,0.1c0,0,0,0-0.1,0c0,0-0.1,0-0.1,0c0,0-0.1,0-0.1,0c-0.1,0-0.1,0-0.2,0
							c-0.1,0-0.3-0.1-0.4-0.1c-0.1-0.1-0.2-0.1-0.2-0.2c0-0.1-0.1-0.2-0.1-0.3c0-0.1,0-0.2,0-0.4l0-0.5c0-0.2,0-0.3,0-0.4
							c0-0.1-0.1-0.2-0.2-0.3c-0.1-0.1-0.1-0.1-0.2-0.1c-0.1,0-0.2,0-0.2-0.1l-0.5-0.1l-0.3,2l0.6,0.1l0,0.1L213.3,122.9
							L213.3,122.9z M209.4,122.2l0.6,0.1l0.7-3.7l-0.6-0.1l0-0.1l3.1,0.5l-0.2,0.9l-0.1,0c0-0.2-0.1-0.3-0.1-0.4
							c0-0.1-0.1-0.2-0.1-0.3c-0.1-0.1-0.1-0.2-0.2-0.2c-0.1-0.1-0.2-0.1-0.4-0.1l-0.9-0.2l-0.3,1.7l0.4,0.1c0.1,0,0.2,0,0.3,0
							c0.1,0,0.2,0,0.2-0.1c0.1,0,0.1-0.1,0.2-0.2c0.1-0.1,0.1-0.2,0.2-0.4l0.1,0l-0.3,1.7l-0.1,0c0-0.1,0-0.2,0-0.3
							c0-0.1,0-0.2-0.1-0.3c0-0.1-0.1-0.2-0.2-0.2c-0.1-0.1-0.2-0.1-0.3-0.1l-0.4-0.1l-0.3,2l1,0.2c0.2,0,0.4,0,0.5,0
							c0.1-0.1,0.3-0.1,0.4-0.2c0.1-0.1,0.2-0.2,0.3-0.3c0.1-0.1,0.1-0.2,0.1-0.3l0.1,0l-0.2,1.2L209.4,122.2L209.4,122.2z
							 M206.2,117.7l3.3,0.6l-0.2,1l-0.1,0c0-0.2-0.1-0.4-0.1-0.6c-0.1-0.1-0.1-0.2-0.2-0.3c-0.1-0.1-0.2-0.1-0.3-0.2
							c-0.1,0-0.2,0-0.2-0.1l-0.3-0.1l-0.7,3.7l0.6,0.1l0,0.1l-1.8-0.3l0-0.1l0.6,0.1l0.7-3.7l-0.3-0.1c-0.1,0-0.2,0-0.2,0
							c-0.1,0-0.2,0-0.3,0.1c-0.1,0-0.2,0.1-0.3,0.2c-0.1,0.1-0.2,0.3-0.3,0.5l-0.1,0L206.2,117.7z M201.4,120.8l0.6,0.1l0.7-3.7
							l-0.6-0.1l0-0.1l1.2,0.2l1.3,3.3l0,0l0.5-2.9l-0.6-0.1l0-0.1l1.3,0.2l0,0.1l-0.6-0.1l-0.7,3.9l-0.1,0l-1.7-4.1l0,0l-0.6,3.5
							l0.6,0.1l0,0.1L201.4,120.8L201.4,120.8z M199.2,120.4l0.6,0.1l0.7-3.7l-0.6-0.1l0-0.1l1.8,0.3l0,0.1l-0.6-0.1l-0.7,3.7
							l0.6,0.1l0,0.1L199.2,120.4L199.2,120.4z"/>
						<path class="st0" d="M215.6,121.1c0.1,0,0.2,0,0.2-0.1c0.1-0.1,0.1-0.1,0.2-0.2c0.1-0.1,0.1-0.2,0.1-0.4c0-0.2,0-0.3,0-0.5
							c0-0.1-0.1-0.2-0.1-0.3c-0.1-0.1-0.1-0.1-0.2-0.2c-0.1,0-0.2-0.1-0.3-0.1c-0.1,0-0.1,0-0.2,0c-0.1,0-0.1,0-0.2,0l-0.3,1.7
							l0.5,0.1C215.4,121.1,215.5,121.2,215.6,121.1z"/>
						<polygon class="st0" points="221.6,123.2 221.6,123.2 221.1,120.3 219.7,120.1 219.7,120.1 220.2,120.2 219.5,124 219,123.9 
							219,124 220.1,124.2 220.1,124.1 219.6,124 220.3,120.3 220.3,120.3 221,124.3 221.1,124.3 223.1,120.7 223.1,120.7 
							222.4,124.5 221.9,124.4 221.9,124.5 223.7,124.8 223.7,124.7 223.2,124.6 223.9,120.9 224.4,121 224.4,120.9 223,120.7 
													"/>
						<path class="st0" d="M227.6,124.7c-0.1,0.1-0.2,0.2-0.3,0.3c-0.1,0.1-0.3,0.1-0.4,0.2c-0.1,0-0.3,0-0.5,0l-0.9-0.2l0.3-2
							l0.4,0.1c0.1,0,0.2,0.1,0.3,0.1c0.1,0.1,0.1,0.1,0.2,0.2c0,0.1,0.1,0.2,0.1,0.3c0,0.1,0,0.2,0,0.3l0.1,0l0.3-1.7l-0.1,0
							c0,0.1-0.1,0.2-0.2,0.3c-0.1,0.1-0.1,0.2-0.2,0.2c-0.1,0.1-0.2,0.1-0.3,0.1c-0.1,0-0.2,0-0.4,0l-0.3-0.1l0.3-1.7l0.9,0.2
							c0.2,0,0.3,0.1,0.4,0.2c0.1,0.1,0.2,0.2,0.3,0.3c0.1,0.1,0.1,0.2,0.1,0.3c0,0.1,0,0.2,0.1,0.3l0.1,0l0.2-0.9l-3.3-0.6l0,0.1
							l0.5,0.1l-0.7,3.7l-0.5-0.1l0,0.1l3.5,0.6l0.2-1.2l-0.1,0C227.8,124.4,227.7,124.6,227.6,124.7z"/>
						<path class="st0" d="M232.4,123c-0.1-0.2-0.2-0.3-0.4-0.4c-0.1-0.1-0.3-0.2-0.5-0.3c-0.2-0.1-0.3-0.2-0.5-0.2
							c-0.2-0.1-0.3-0.1-0.5-0.1c-0.2,0-0.4-0.1-0.6-0.1c-0.2,0-0.4-0.1-0.6-0.1l-0.5-0.1l0,0.1l0.5,0.1l-0.7,3.7l-0.5-0.1l0,0.1
							l0.5,0.1c0.2,0,0.4,0.1,0.6,0.1c0.2,0,0.4,0.1,0.6,0.1c0.1,0,0.3,0,0.5,0c0.2,0,0.3,0,0.5,0c0.2,0,0.4-0.1,0.5-0.1
							c0.2-0.1,0.3-0.2,0.5-0.3c0.1-0.1,0.3-0.3,0.4-0.5c0.1-0.2,0.2-0.4,0.2-0.7c0-0.3,0.1-0.5,0-0.7
							C232.6,123.4,232.5,123.2,232.4,123z M231.6,124.6c0,0.1-0.1,0.3-0.1,0.4c-0.1,0.1-0.1,0.3-0.2,0.4c-0.1,0.1-0.2,0.2-0.3,0.3
							c-0.1,0.1-0.3,0.1-0.5,0.2c-0.2,0-0.4,0-0.6,0c-0.1,0-0.2,0-0.3-0.1l0.7-3.7c0,0,0.1,0,0.1,0c0.1,0,0.1,0,0.2,0
							c0.3,0.1,0.6,0.1,0.7,0.3c0.2,0.1,0.3,0.3,0.4,0.5c0.1,0.2,0.1,0.4,0.1,0.7c0,0.2,0,0.5-0.1,0.8
							C231.7,124.3,231.7,124.5,231.6,124.6z"/>
						<polygon class="st0" points="233.5,122.6 234,122.6 233.4,126.4 232.9,126.3 232.9,126.4 234.7,126.7 234.7,126.6 
							234.2,126.5 234.8,122.8 235.3,122.9 235.3,122.8 233.5,122.5 						"/>
						<path class="st0" d="M238.5,126.6c-0.1,0.1-0.2,0.2-0.3,0.3c-0.1,0.1-0.3,0.2-0.4,0.2c-0.1,0-0.3,0-0.5,0
							c-0.2,0-0.4-0.1-0.5-0.2c-0.1-0.1-0.2-0.2-0.3-0.4c-0.1-0.2-0.1-0.4-0.1-0.6c0-0.3,0-0.6,0.1-1c0.1-0.3,0.1-0.6,0.2-0.8
							c0.1-0.2,0.2-0.4,0.3-0.6c0.1-0.2,0.2-0.3,0.4-0.3c0.2-0.1,0.4-0.1,0.7,0c0.2,0,0.4,0.1,0.5,0.2c0.1,0.1,0.2,0.2,0.3,0.3
							c0.1,0.1,0.1,0.3,0.2,0.4c0,0.1,0.1,0.3,0.1,0.4l0.1,0l0.2-1.1l-0.1,0c0,0,0,0.1-0.1,0.1c0,0-0.1,0-0.1,0c0,0-0.1,0-0.2-0.1
							c-0.1,0-0.1-0.1-0.2-0.1c-0.1,0-0.2-0.1-0.3-0.1c-0.1,0-0.2-0.1-0.3-0.1c-0.2,0-0.5,0-0.7,0c-0.3,0.1-0.5,0.2-0.7,0.3
							c-0.2,0.1-0.4,0.3-0.6,0.6c-0.2,0.2-0.3,0.5-0.3,0.8c0,0.3,0,0.6,0,0.8c0.1,0.3,0.2,0.5,0.3,0.7c0.2,0.2,0.3,0.4,0.6,0.5
							c0.2,0.1,0.5,0.2,0.7,0.3c0.1,0,0.2,0,0.3,0c0.1,0,0.2,0,0.3,0c0.1,0,0.2,0,0.2,0c0.1,0,0.1,0,0.2,0c0.1,0,0.1,0,0.1,0
							c0,0,0,0.1,0,0.1l0.1,0l0.2-1.2l-0.1,0C238.7,126.3,238.6,126.5,238.5,126.6z"/>
						<path class="st0" d="M241.8,123.8l-0.1,0l-2.3,3.7l-0.5-0.1l0,0.1l1,0.2l0-0.1l-0.5-0.1l0.9-1.4l1.3,0.2l0.4,1.6l-0.5-0.1
							l0,0.1l1.8,0.3l0-0.1l-0.5-0.1L241.8,123.8z M240.3,126l0.9-1.4l0.4,1.6L240.3,126z"/>
						<path class="st0" d="M244.8,124.7c0-0.1-0.1-0.2-0.1-0.2c-0.1-0.1-0.1-0.1-0.2-0.2c-0.1,0-0.2-0.1-0.3-0.1c-0.1,0-0.2,0-0.3,0
							c-0.1,0-0.2,0.1-0.2,0.1c-0.1,0.1-0.1,0.1-0.2,0.2c0,0.1-0.1,0.2-0.1,0.3c0,0.1,0,0.2,0,0.3c0,0.1,0.1,0.2,0.1,0.2
							c0.1,0.1,0.1,0.1,0.2,0.2c0.1,0,0.2,0.1,0.3,0.1c0.1,0,0.2,0,0.3,0c0.1,0,0.2-0.1,0.2-0.1c0.1,0,0.1-0.1,0.2-0.2
							c0-0.1,0.1-0.2,0.1-0.3C244.9,124.9,244.8,124.8,244.8,124.7z M244.7,125.3c0,0.1-0.1,0.1-0.2,0.2c-0.1,0-0.1,0.1-0.2,0.1
							c-0.1,0-0.2,0-0.3,0c-0.1,0-0.2,0-0.2-0.1c-0.1,0-0.1-0.1-0.2-0.2c0-0.1-0.1-0.1-0.1-0.2c0-0.1,0-0.2,0-0.3
							c0-0.1,0-0.2,0.1-0.2c0-0.1,0.1-0.1,0.2-0.2c0.1,0,0.1-0.1,0.2-0.1c0.1,0,0.2,0,0.3,0c0.1,0,0.2,0,0.2,0.1
							c0.1,0,0.1,0.1,0.2,0.2c0,0.1,0.1,0.1,0.1,0.2c0,0.1,0,0.2,0,0.3C244.8,125.1,244.8,125.2,244.7,125.3z"/>
						<g>
							<path class="st0" d="M244.5,125.3C244.5,125.3,244.5,125.3,244.5,125.3C244.4,125.3,244.4,125.3,244.5,125.3
								c-0.1-0.1-0.1-0.1-0.1-0.2c0-0.1,0-0.1,0-0.1c0,0-0.1,0-0.1-0.1l0,0c0,0,0.1,0,0.1,0c0,0,0.1,0,0.1-0.1c0,0,0-0.1,0-0.1
								c0,0,0,0,0-0.1c0,0,0,0-0.1,0c0,0-0.1,0-0.1,0c0,0-0.1,0-0.1,0c0,0-0.1,0-0.1,0l-0.2,0l0,0l0.1,0l-0.1,0.7l-0.1,0l0,0
								l0.3,0.1l0,0l-0.1,0l0.1-0.4l0.1,0c0,0,0.1,0,0.1,0c0,0,0,0,0,0.1c0,0,0,0,0,0.1c0,0,0,0.1,0,0.1c0,0,0,0,0,0.1
								c0,0,0,0,0,0.1c0,0,0,0,0,0.1C244.3,125.3,244.3,125.3,244.5,125.3C244.4,125.3,244.4,125.3,244.5,125.3
								C244.5,125.3,244.5,125.3,244.5,125.3L244.5,125.3C244.5,125.3,244.5,125.3,244.5,125.3z M244.1,124.8L244.1,124.8l0-0.3
								c0,0,0,0,0,0c0,0,0,0,0,0c0.1,0,0.1,0,0.1,0.1c0,0,0,0.1,0,0.1c0,0,0,0.1,0,0.1C244.2,124.8,244.2,124.9,244.1,124.8z"/>
						</g>
					</g>
				</g>
			</g>
		</g>
	</g>
</g>
</svg>
