<svg xmlns="http://www.w3.org/2000/svg" width="239.161" height="60.671" viewBox="0 0 239.161 60.671">
    <g id="Group_527" data-name="Group 527" transform="translate(-3585.801 -84.985)">
      <path id="Path_1857" data-name="Path 1857" d="M3627.393,104.787l1.085-8.318h-34l-1.266,9.042h19.892l-26.221,30.471L3585.8,144.3h35.263l2.351-9.042h-22.243Z" fill="#5c575d"/>
      <path id="Path_1858" data-name="Path 1858" d="M3812.665,102.617h10.579l1.718-5.877h-11.483l1.627-11.755-5.877.633-2.893,11.122h-8.5l-.813,5.877h8.228l-4.16,29.205c-1.266,8.68,3.075,13.563,11.031,13.563a18.67,18.67,0,0,0,10.4-3.165l-2.442-5.244a15.185,15.185,0,0,1-7.052,1.99c-3.8,0-5.154-2.081-4.431-7.054Z" fill="#5c575d"/>
      <path id="Path_1859" data-name="Path 1859" d="M3700,95.112c-18.159,0-24.876,15.462-25.683,27.818,3.893.152,7.831.275,11.788.367.612-8.224,3.768-19.414,13.262-19.414,5.335,0,8.138,3.164,8.048,10.4a43.562,43.562,0,0,1-1,9.23c4.041-.01,8.046-.051,11.986-.123a40.53,40.53,0,0,0,.861-8.2C3719.26,102.888,3712.388,95.112,3700,95.112Z" fill="#008dcc"/>
      <path id="Path_1860" data-name="Path 1860" d="M3694.123,136.885c-4.58,0-7.287-2.407-7.964-7.662q-5.977-.137-11.749-.361c1.153,10.477,7.85,16.794,19.08,16.794,12.684,0,19.757-7.59,23.161-16.329q-5.964.1-12.206.1C3702.432,133.675,3699.191,136.885,3694.123,136.885Z" fill="#5c575d"/>
      <path id="Path_1861" data-name="Path 1861" d="M3651.988,95.112c-16.27,0-23.353,12.413-25.232,23.883,3.612.535,7.511,1.022,11.641,1.462,1.09-7.739,4.523-16.574,12.958-16.574,5.335,0,8.137,3.164,8.047,10.4a44.106,44.106,0,0,1-.719,7.858c3.861.242,7.815.453,11.831.632a40.494,40.494,0,0,0,.733-7.586C3671.247,102.888,3664.375,95.112,3651.988,95.112Z" fill="#008dcc"/>
      <path id="Path_1862" data-name="Path 1862" d="M3646.111,136.885c-5.335,0-8.138-3.255-8.138-10.488v-.071c-4.184-.451-8.112-.947-11.745-1.485,0,.217-.011.437-.011.652,0,12.478,6.872,20.163,19.26,20.163,13.021,0,20.129-8,23.424-17.029q-6.084-.286-11.838-.667C3655.124,132.912,3651.748,136.885,3646.111,136.885Z" fill="#5c575d"/>
      <path id="Path_1863" data-name="Path 1863" d="M3780.295,95.655c-15.836,0-22.754,13.582-24.141,25.793q-3.266.312-6.783.578l12.114-25.286h-8.227l-18.265,40.688-6.872-40.688h-8.228l9.765,47.56h9.042l7.755-16.188q4.969-.343,9.451-.772c.422,11.3,6.788,18.045,17.879,18.045A27.649,27.649,0,0,0,3790.6,139.6l-3.256-5.154c-4.34,3.165-8.228,4.522-12.839,4.522-6.308,0-10.638-3.327-10.756-12.481,1.9-.237,3.718-.486,5.419-.749,6.554-.923,12.422-2.286,16.913-4.559,5.584-2.825,9.04-7.054,9.04-13.587C3795.124,101.26,3790.151,95.655,3780.295,95.655Zm-2.207,22.31c-3.258.915-13.488,2.506-13.978,2.555,1.266-8.952,5.7-18.807,16.094-18.807,5.335,0,6.963,3.526,6.963,6.148C3787.167,112.932,3783.968,116.01,3778.088,117.965Z" fill="#5c575d"/>
    </g>
  </svg>
  