<?xml version="1.0" encoding="utf-8"?>
<!-- Generator: Adobe Illustrator 26.3.1, SVG Export Plug-In . SVG Version: 6.00 Build 0)  -->
<svg version="1.1" id="Capa_1" xmlns="http://www.w3.org/2000/svg" xmlns:xlink="http://www.w3.org/1999/xlink" x="0px" y="0px"
	 viewBox="0 0 226.5 64.5" style="enable-background:new 0 0 226.5 64.5;" xml:space="preserve">
<style type="text/css">
	.st0{fill:url(#SVGID_1_);}
	.st1{enable-background:new    ;}
	.st2{fill:#FFFFFF;}
	.st3{fill:none;stroke:#FFFFFF;stroke-width:0.8328;stroke-miterlimit:10;}
</style>
<g>
	
		<linearGradient id="SVGID_1_" gradientUnits="userSpaceOnUse" x1="9.999943e-02" y1="33.0256" x2="226.4" y2="33.0256" gradientTransform="matrix(1 0 0 -1 0 65.2756)">
		<stop  offset="0.2046" style="stop-color:#F05235"/>
		<stop  offset="0.8634" style="stop-color:#F8951D"/>
	</linearGradient>
	<path class="st0" d="M216.1,64.5H10.4c-5.7,0-10.3-4.6-10.3-10.3v-44C0.1,4.6,4.7,0,10.4,0h205.7c5.7,0,10.3,4.6,10.3,10.3v44
		C226.4,59.9,221.8,64.5,216.1,64.5z"/>
	<g>
		<g class="st1">
			<path class="st2" d="M62.2,21.1l-9,21.2h-7l-9-21.2h7.7L50,33.5l5.2-12.4H62.2z"/>
			<path class="st2" d="M80.6,37v5.4H62.9V21.1h17.2v5.4H70V29h9v5.2h-9V37H80.6z"/>
			<path class="st2" d="M92.4,37h-1.9v5.3h-7.2V21.1h10.2c2,0,3.7,0.3,5.1,1c1.5,0.6,2.6,1.6,3.4,2.8c0.8,1.2,1.2,2.6,1.2,4.2
				c0,1.5-0.3,2.8-1,4c-0.7,1.1-1.7,2-3,2.7l4.5,6.5H96L92.4,37z M95.3,27.3c-0.5-0.4-1.2-0.7-2.2-0.7h-2.6v5h2.6
				c1,0,1.7-0.2,2.2-0.7c0.5-0.4,0.7-1,0.7-1.8S95.8,27.7,95.3,27.3z"/>
			<path class="st2" d="M133.9,42.4l-0.1-9.7l-4.6,7.8h-3.2l-4.6-7.4v9.3H115V21.1h5.9l6.9,11.3l6.7-11.3h5.9l0.1,21.2H133.9z"/>
			<path class="st2" d="M158.4,38.7h-8.1l-1.4,3.7h-7.3l9.3-21.2h7l9.3,21.2h-7.4L158.4,38.7z M155.2,14.6h6.5l-6,4.8h-4.5
				L155.2,14.6z M156.4,33.5l-2.1-5.3l-2.1,5.3H156.4z"/>
			<path class="st2" d="M171.1,42.3c-1.7-0.4-3-0.9-4.1-1.6l2.3-5.2c1,0.6,2.1,1.1,3.4,1.4c1.3,0.4,2.5,0.5,3.6,0.5
				c1,0,1.7-0.1,2.1-0.3c0.4-0.2,0.6-0.5,0.6-0.9c0-0.4-0.3-0.8-0.8-1c-0.6-0.2-1.5-0.5-2.7-0.7c-1.6-0.3-3-0.7-4.1-1.1
				c-1.1-0.4-2-1-2.8-1.9c-0.8-0.9-1.2-2.1-1.2-3.7c0-1.3,0.4-2.5,1.1-3.6c0.7-1.1,1.9-2,3.3-2.6c1.5-0.6,3.3-0.9,5.4-0.9
				c1.5,0,2.9,0.2,4.3,0.5c1.4,0.3,2.6,0.8,3.7,1.4l-2.2,5.2c-2.1-1.1-4.1-1.6-5.9-1.6c-1.8,0-2.8,0.4-2.8,1.3c0,0.4,0.3,0.7,0.8,1
				s1.4,0.4,2.7,0.7c1.6,0.3,3,0.7,4.1,1c1.1,0.4,2.1,1,2.9,1.9s1.2,2.1,1.2,3.6c0,1.3-0.4,2.5-1.1,3.6c-0.7,1.1-1.9,1.9-3.3,2.6
				s-3.3,1-5.4,1C174.5,42.9,172.8,42.7,171.1,42.3z"/>
		</g>
		<g class="st1">
			<path class="st3" d="M64.7,23.6l-9,21.2h-7l-9-21.2h7.7L52.5,36l5.2-12.4H64.7z"/>
			<path class="st3" d="M83.1,39.5v5.4H65.4V23.6h17.2V29H72.5v2.5h9v5.2h-9v2.8H83.1z"/>
			<path class="st3" d="M94.9,39.5H93v5.3h-7.2V23.6H96c2,0,3.7,0.3,5.1,1c1.5,0.6,2.6,1.6,3.4,2.8c0.8,1.2,1.2,2.6,1.2,4.2
				c0,1.5-0.3,2.8-1,4c-0.7,1.1-1.7,2-3,2.7l4.5,6.5h-7.6L94.9,39.5z M97.8,29.8c-0.5-0.4-1.2-0.7-2.2-0.7H93v5h2.6
				c1,0,1.7-0.2,2.2-0.7c0.5-0.4,0.7-1,0.7-1.8S98.3,30.2,97.8,29.8z"/>
			<path class="st3" d="M136.4,44.9l-0.1-9.7l-4.6,7.8h-3.2l-4.6-7.4v9.3h-6.5V23.6h5.9l6.9,11.3l6.7-11.3h5.9l0.1,21.2H136.4z"/>
			<path class="st3" d="M160.9,41.2h-8.1l-1.4,3.7h-7.3l9.3-21.2h7l9.3,21.2h-7.4L160.9,41.2z M157.7,17.1h6.5l-6,4.8h-4.5
				L157.7,17.1z M158.9,36l-2.1-5.3l-2.1,5.3H158.9z"/>
			<path class="st3" d="M173.6,44.8c-1.7-0.4-3-0.9-4.1-1.6l2.3-5.2c1,0.6,2.1,1.1,3.4,1.4c1.3,0.4,2.5,0.5,3.6,0.5
				c1,0,1.7-0.1,2.1-0.3c0.4-0.2,0.6-0.5,0.6-0.9c0-0.4-0.3-0.8-0.8-1c-0.6-0.2-1.5-0.5-2.7-0.7c-1.6-0.3-3-0.7-4.1-1.1
				c-1.1-0.4-2-1-2.8-1.9c-0.8-0.9-1.2-2.1-1.2-3.7c0-1.3,0.4-2.5,1.1-3.6c0.7-1.1,1.9-2,3.3-2.6c1.5-0.6,3.3-0.9,5.4-0.9
				c1.5,0,2.9,0.2,4.3,0.5c1.4,0.3,2.6,0.8,3.7,1.4l-2.2,5.2c-2.1-1.1-4.1-1.6-5.9-1.6c-1.8,0-2.8,0.4-2.8,1.3c0,0.4,0.3,0.7,0.8,1
				s1.4,0.4,2.7,0.7c1.6,0.3,3,0.7,4.1,1c1.1,0.4,2.1,1,2.9,1.9s1.2,2.1,1.2,3.6c0,1.3-0.4,2.5-1.1,3.6c-0.7,1.1-1.9,1.9-3.3,2.6
				s-3.3,1-5.4,1C177,45.4,175.3,45.2,173.6,44.8z"/>
		</g>
	</g>
</g>
</svg>
